<?xml version="1.0" encoding="utf-8"?>
<!-- Generator: Adobe Illustrator 16.0.0, SVG Export Plug-In . SVG Version: 6.00 Build 0)  -->
<!DOCTYPE svg PUBLIC "-//W3C//DTD SVG 1.1//EN" "http://www.w3.org/Graphics/SVG/1.1/DTD/svg11.dtd">
<svg version="1.1" id="Capa_1" xmlns="http://www.w3.org/2000/svg" xmlns:xlink="http://www.w3.org/1999/xlink" x="0px" y="0px"
	  viewBox="0 0 200 200" enable-background="new 0 0 200 200" xml:space="preserve">
<g>
	<g>
		<path fill="#CDD0D4" d="M84.195,16.494l0.414-15.793L99.988,16.08L84.195,16.494z M85.549,3.057l-0.325,12.409l12.409-0.326
			L85.549,3.057z"/>
	</g>
	<g>
		<path fill="#CDD0D4" d="M84.709,16.48c-0.128,0-0.257-0.048-0.354-0.147c-0.195-0.195-0.195-0.512,0-0.708l7.236-7.236
			c0.196-0.195,0.512-0.195,0.708,0c0.195,0.196,0.195,0.513,0,0.708l-7.236,7.235C84.966,16.432,84.838,16.48,84.709,16.48z"/>
	</g>
</g>
<g>
	<g>
		<path fill="#B0B0B0" d="M144.96,72.738h-13.169V60.09L144.96,72.738z M132.792,71.738h9.681l-9.681-9.298V71.738z"/>
	</g>
	<g>
		<g>
			<path fill="#D6D6D6" d="M154.65,83.436l-31.546-30.297l31.546-30.296V83.436z M124.55,53.139l29.1,27.948V25.192L124.55,53.139z"
				/>
		</g>
		<g>
			<path fill="#D6D6D6" d="M154.149,53.639h-30.322c-0.277,0-0.501-0.224-0.501-0.5c0-0.276,0.224-0.5,0.501-0.5h30.322
				c0.277,0,0.501,0.224,0.501,0.5C154.65,53.415,154.427,53.639,154.149,53.639z"/>
		</g>
		<g>
			<path fill="#D6D6D6" d="M154.149,48.864h-25.352c-0.276,0-0.5-0.224-0.5-0.5s0.224-0.5,0.5-0.5h25.352
				c0.277,0,0.501,0.224,0.501,0.5S154.427,48.864,154.149,48.864z"/>
		</g>
		<g>
			<path fill="#D6D6D6" d="M154.149,44.09h-20.379c-0.277,0-0.501-0.224-0.501-0.5c0-0.277,0.224-0.5,0.501-0.5h20.379
				c0.277,0,0.501,0.224,0.501,0.5C154.65,43.866,154.427,44.09,154.149,44.09z"/>
		</g>
		<g>
			<path fill="#D6D6D6" d="M154.149,39.315h-15.408c-0.276,0-0.5-0.225-0.5-0.501c0-0.277,0.224-0.501,0.5-0.501h15.408
				c0.277,0,0.501,0.224,0.501,0.501C154.65,39.091,154.427,39.315,154.149,39.315z"/>
		</g>
		<g>
			<path fill="#D6D6D6" d="M154.149,34.541h-10.436c-0.276,0-0.5-0.225-0.5-0.5c0-0.277,0.224-0.501,0.5-0.501h10.436
				c0.277,0,0.501,0.224,0.501,0.501C154.65,34.316,154.427,34.541,154.149,34.541z"/>
		</g>
		<g>
			<path fill="#D6D6D6" d="M154.149,29.766h-5.465c-0.275,0-0.499-0.225-0.499-0.5c0-0.277,0.224-0.501,0.499-0.501h5.465
				c0.277,0,0.501,0.224,0.501,0.501C154.65,29.541,154.427,29.766,154.149,29.766z"/>
		</g>
		<g>
			<path fill="#D6D6D6" d="M154.149,58.414h-25.352c-0.276,0-0.5-0.224-0.5-0.5c0-0.276,0.224-0.5,0.5-0.5h25.352
				c0.277,0,0.501,0.224,0.501,0.5C154.65,58.19,154.427,58.414,154.149,58.414z"/>
		</g>
		<g>
			<path fill="#D6D6D6" d="M154.149,63.189h-20.379c-0.277,0-0.501-0.224-0.501-0.5c0-0.276,0.224-0.5,0.501-0.5h20.379
				c0.277,0,0.501,0.224,0.501,0.5C154.65,62.965,154.427,63.189,154.149,63.189z"/>
		</g>
		<g>
			<path fill="#D6D6D6" d="M154.149,67.964h-15.408c-0.276,0-0.5-0.224-0.5-0.5c0-0.277,0.224-0.5,0.5-0.5h15.408
				c0.277,0,0.501,0.224,0.501,0.5C154.65,67.74,154.427,67.964,154.149,67.964z"/>
		</g>
		<g>
			<path fill="#D6D6D6" d="M154.149,72.738h-10.436c-0.276,0-0.5-0.224-0.5-0.5c0-0.276,0.224-0.5,0.5-0.5h10.436
				c0.277,0,0.501,0.224,0.501,0.5C154.65,72.514,154.427,72.738,154.149,72.738z"/>
		</g>
		<g>
			<path fill="#D6D6D6" d="M154.149,77.513h-5.465c-0.275,0-0.499-0.224-0.499-0.5s0.224-0.5,0.499-0.5h5.465
				c0.277,0,0.501,0.224,0.501,0.5S154.427,77.513,154.149,77.513z"/>
		</g>
	</g>
	<g>
		<path fill="#383E42" d="M153.649,68.814V37.649l16.422,15.583L153.649,68.814z M154.65,39.979v26.504l13.967-13.252L154.65,39.979
			z"/>
	</g>
</g>
<g>
	<g>
		<path fill="#D6D6D6" d="M42.907,172.481l-26.64-26.64l26.64-26.641V172.481z M17.682,145.842l24.223,24.223v-48.445
			L17.682,145.842z"/>
	</g>
	<g>
		<path fill="#D6D6D6" d="M30.049,158.699c-0.063,0-0.127-0.013-0.188-0.037c-0.186-0.075-0.31-0.254-0.313-0.456l-0.17-11.862
			H16.975c-0.277,0-0.501-0.225-0.501-0.502c0-0.276,0.225-0.5,0.501-0.5h12.39l-0.175-12.209c-0.002-0.202,0.118-0.389,0.306-0.468
			c0.187-0.08,0.405-0.037,0.549,0.106l12.716,12.717l0,0c0,0.001,0,0,0.001,0.002c0,0,0.001,0.001,0.001,0.001v0.001
			c0.001,0,0.001,0.001,0.001,0.001l0,0c0.087,0.088,0.135,0.2,0.142,0.317c0.001,0.031,0.001,0.062-0.003,0.095
			c-0.012,0.096-0.051,0.187-0.118,0.264c-0.008,0.011-0.019,0.021-0.027,0.029l-12.354,12.354
			C30.308,158.648,30.18,158.699,30.049,158.699z M30.38,146.344l0.153,10.663l10.665-10.663H30.38z M30.366,145.342h10.832
			l-10.989-10.99L30.366,145.342z"/>
	</g>
	<g>
		<path fill="#D6D6D6" d="M42.406,133.627H29.69c-0.276,0-0.501-0.225-0.501-0.5c0-0.278,0.225-0.502,0.501-0.502h12.716
			c0.276,0,0.5,0.224,0.5,0.502C42.907,133.402,42.683,133.627,42.406,133.627z"/>
	</g>
	<g>
		<path fill="#D6D6D6" d="M42.406,158.699H30.049c-0.276,0-0.5-0.224-0.5-0.5s0.224-0.501,0.5-0.501h12.357
			c0.276,0,0.5,0.225,0.5,0.501S42.683,158.699,42.406,158.699z"/>
	</g>
</g>
<image overflow="visible" width="115" height="14" xlink:href="A5B41B3C.png"  transform="matrix(1 0 0 1 50 187)">
</image>
<g>
	<g>
		<path fill="#737373" d="M144.52,147.199c-8.115,0-15.746-3.161-21.485-8.899c-5.738-5.739-8.898-13.369-8.898-21.484
			c0-8.116,3.16-15.746,8.898-21.485c5.739-5.739,13.37-8.9,21.485-8.9c8.116,0,15.747,3.161,21.486,8.9l0,0
			c11.846,11.848,11.846,31.123,0,42.97C160.267,144.038,152.636,147.199,144.52,147.199z M144.52,87.932
			c-7.714,0-14.968,3.004-20.423,8.459c-5.455,5.456-8.459,12.708-8.459,20.424c0,7.714,3.004,14.967,8.459,20.422
			c5.455,5.456,12.709,8.46,20.423,8.46c7.716,0,14.968-3.004,20.425-8.46c11.26-11.26,11.26-29.583,0-40.846
			C159.487,90.937,152.235,87.932,144.52,87.932z"/>
	</g>
	<g>
		
			<rect x="114.886" y="116.064" transform="matrix(0.7071 0.7071 -0.7071 0.7071 124.9254 -67.9767)" fill="#737373" width="59.269" height="1.502"/>
	</g>
	<g>
		
			<rect x="119.617" y="111.63" transform="matrix(0.7071 0.7071 -0.7071 0.7071 123.0927 -72.4109)" fill="#737373" width="58.675" height="1.502"/>
	</g>
	<g>
		
			<rect x="126.589" y="107.196" transform="matrix(0.7071 0.7071 -0.7071 0.7071 121.254 -76.8449)" fill="#737373" width="53.6" height="1.501"/>
	</g>
	<g>
		
			<rect x="134.773" y="102.762" transform="matrix(0.7071 0.7071 -0.7071 0.7071 119.4182 -81.2791)" fill="#737373" width="46.1" height="1.501"/>
	</g>
	<g>
		
			<rect x="146.439" y="98.328" transform="matrix(0.7071 0.7071 -0.7071 0.7071 117.5831 -85.7135)" fill="#737373" width="31.635" height="1.502"/>
	</g>
	<g>
		
			<rect x="110.749" y="120.499" transform="matrix(0.7071 0.7071 -0.7071 0.7071 126.7664 -63.543)" fill="#737373" width="58.675" height="1.501"/>
	</g>
	<g>
		
			<rect x="108.853" y="124.931" transform="matrix(0.7071 0.7071 -0.7071 0.7071 128.6027 -59.1091)" fill="#737373" width="53.599" height="1.503"/>
	</g>
	<g>
		
			<rect x="108.168" y="129.367" transform="matrix(0.7071 0.7071 -0.7071 0.7071 130.4399 -54.6744)" fill="#737373" width="46.1" height="1.502"/>
	</g>
	<g>
		
			<rect x="110.967" y="133.802" transform="matrix(0.7071 0.7071 -0.7071 0.7071 132.2806 -50.2402)" fill="#737373" width="31.634" height="1.5"/>
	</g>
</g>
<g>
	<circle fill="#CFCFCF" cx="33.656" cy="44.937" r="1.216"/>
	<circle fill="#CFCFCF" cx="39.039" cy="44.937" r="1.217"/>
	<circle fill="#CFCFCF" cx="44.422" cy="44.937" r="1.216"/>
	<circle fill="#CFCFCF" cx="49.805" cy="44.937" r="1.217"/>
	<circle fill="#CFCFCF" cx="55.188" cy="44.937" r="1.216"/>
	<circle fill="#CFCFCF" cx="60.571" cy="44.937" r="1.216"/>
	<circle fill="#CFCFCF" cx="65.953" cy="44.937" r="1.216"/>
	<circle fill="#CFCFCF" cx="71.337" cy="44.937" r="1.216"/>
	<circle fill="#CFCFCF" cx="76.719" cy="44.937" r="1.216"/>
	<circle fill="#CFCFCF" cx="82.102" cy="44.937" r="1.217"/>
	<circle fill="#CFCFCF" cx="33.656" cy="50.32" r="1.216"/>
	<circle fill="#CFCFCF" cx="39.039" cy="50.32" r="1.217"/>
	<circle fill="#CFCFCF" cx="44.422" cy="50.32" r="1.216"/>
	<circle fill="#CFCFCF" cx="49.805" cy="50.32" r="1.217"/>
	<circle fill="#CFCFCF" cx="55.188" cy="50.32" r="1.216"/>
	<circle fill="#CFCFCF" cx="60.571" cy="50.32" r="1.216"/>
	<circle fill="#CFCFCF" cx="65.953" cy="50.32" r="1.216"/>
	<circle fill="#CFCFCF" cx="71.337" cy="50.32" r="1.216"/>
	<circle fill="#CFCFCF" cx="76.719" cy="50.32" r="1.216"/>
	<circle fill="#CFCFCF" cx="82.102" cy="50.32" r="1.217"/>
	<circle fill="#CFCFCF" cx="33.656" cy="55.703" r="1.216"/>
	<circle fill="#CFCFCF" cx="39.039" cy="55.703" r="1.217"/>
	<circle fill="#CFCFCF" cx="44.422" cy="55.703" r="1.216"/>
	<circle fill="#CFCFCF" cx="49.805" cy="55.703" r="1.217"/>
	<circle fill="#CFCFCF" cx="55.188" cy="55.703" r="1.216"/>
	<circle fill="#CFCFCF" cx="60.571" cy="55.703" r="1.216"/>
	<circle fill="#CFCFCF" cx="65.953" cy="55.703" r="1.216"/>
	<circle fill="#CFCFCF" cx="71.337" cy="55.703" r="1.216"/>
	<circle fill="#CFCFCF" cx="76.719" cy="55.703" r="1.216"/>
	<circle fill="#CFCFCF" cx="82.102" cy="55.703" r="1.217"/>
	<circle fill="#CFCFCF" cx="33.656" cy="61.086" r="1.216"/>
	<circle fill="#CFCFCF" cx="39.039" cy="61.086" r="1.217"/>
	<circle fill="#CFCFCF" cx="44.422" cy="61.086" r="1.216"/>
	<circle fill="#CFCFCF" cx="49.805" cy="61.086" r="1.217"/>
	<circle fill="#CFCFCF" cx="55.188" cy="61.086" r="1.216"/>
	<circle fill="#CFCFCF" cx="60.571" cy="61.086" r="1.216"/>
	<circle fill="#CFCFCF" cx="65.953" cy="61.086" r="1.216"/>
	<circle fill="#CFCFCF" cx="71.337" cy="61.086" r="1.216"/>
	<circle fill="#CFCFCF" cx="76.719" cy="61.086" r="1.216"/>
	<circle fill="#CFCFCF" cx="82.102" cy="61.086" r="1.217"/>
	<circle fill="#CFCFCF" cx="33.656" cy="66.469" r="1.216"/>
	<circle fill="#CFCFCF" cx="39.039" cy="66.469" r="1.217"/>
	<circle fill="#CFCFCF" cx="44.422" cy="66.469" r="1.216"/>
	<circle fill="#CFCFCF" cx="49.805" cy="66.469" r="1.217"/>
	<circle fill="#CFCFCF" cx="55.188" cy="66.469" r="1.216"/>
	<circle fill="#CFCFCF" cx="60.571" cy="66.469" r="1.216"/>
	<circle fill="#CFCFCF" cx="65.953" cy="66.469" r="1.216"/>
	<circle fill="#CFCFCF" cx="71.337" cy="66.469" r="1.216"/>
	<circle fill="#CFCFCF" cx="76.719" cy="66.469" r="1.216"/>
	<circle fill="#CFCFCF" cx="82.102" cy="66.469" r="1.217"/>
	<circle fill="#CFCFCF" cx="33.656" cy="71.852" r="1.216"/>
	<circle fill="#CFCFCF" cx="39.039" cy="71.852" r="1.217"/>
	<circle fill="#CFCFCF" cx="44.422" cy="71.852" r="1.216"/>
	<circle fill="#CFCFCF" cx="49.805" cy="71.852" r="1.217"/>
	<circle fill="#CFCFCF" cx="55.188" cy="71.852" r="1.216"/>
	<circle fill="#CFCFCF" cx="60.571" cy="71.852" r="1.216"/>
	<circle fill="#CFCFCF" cx="65.953" cy="71.852" r="1.216"/>
	<circle fill="#CFCFCF" cx="71.337" cy="71.852" r="1.216"/>
	<circle fill="#CFCFCF" cx="76.719" cy="71.852" r="1.216"/>
	<circle fill="#CFCFCF" cx="82.102" cy="71.852" r="1.217"/>
	<circle fill="#CFCFCF" cx="33.656" cy="77.235" r="1.216"/>
	<circle fill="#CFCFCF" cx="39.039" cy="77.235" r="1.217"/>
	<circle fill="#CFCFCF" cx="44.422" cy="77.235" r="1.216"/>
	<circle fill="#CFCFCF" cx="49.805" cy="77.235" r="1.217"/>
	<circle fill="#CFCFCF" cx="55.188" cy="77.235" r="1.216"/>
	<circle fill="#CFCFCF" cx="60.571" cy="77.235" r="1.216"/>
	<circle fill="#CFCFCF" cx="65.953" cy="77.235" r="1.216"/>
	<circle fill="#CFCFCF" cx="71.337" cy="77.235" r="1.216"/>
	<circle fill="#CFCFCF" cx="76.719" cy="77.235" r="1.216"/>
	<circle fill="#CFCFCF" cx="82.102" cy="77.235" r="1.217"/>
	<circle fill="#CFCFCF" cx="33.656" cy="82.618" r="1.216"/>
	<circle fill="#CFCFCF" cx="39.039" cy="82.618" r="1.217"/>
	<circle fill="#CFCFCF" cx="44.422" cy="82.618" r="1.216"/>
	<circle fill="#CFCFCF" cx="49.805" cy="82.618" r="1.217"/>
	<circle fill="#CFCFCF" cx="55.188" cy="82.618" r="1.216"/>
	<circle fill="#CFCFCF" cx="60.571" cy="82.618" r="1.216"/>
	<circle fill="#CFCFCF" cx="65.953" cy="82.618" r="1.216"/>
	<circle fill="#CFCFCF" cx="71.337" cy="82.618" r="1.216"/>
	<circle fill="#CFCFCF" cx="76.719" cy="82.618" r="1.216"/>
	<circle fill="#CFCFCF" cx="82.102" cy="82.618" r="1.217"/>
</g>
<g opacity="0.5">
	<circle fill="#CCCCCC" cx="169.271" cy="162.587" r="1.073"/>
	<circle fill="#CCCCCC" cx="169.271" cy="157.837" r="1.074"/>
	<circle fill="#CCCCCC" cx="169.271" cy="153.088" r="1.073"/>
	<circle fill="#CCCCCC" cx="169.271" cy="148.338" r="1.074"/>
	<circle fill="#CCCCCC" cx="169.271" cy="143.588" r="1.073"/>
	<circle fill="#CCCCCC" cx="174.021" cy="162.587" r="1.073"/>
	<circle fill="#CCCCCC" cx="174.021" cy="157.837" r="1.074"/>
	<circle fill="#CCCCCC" cx="174.021" cy="153.088" r="1.073"/>
	<circle fill="#CCCCCC" cx="174.021" cy="148.338" r="1.074"/>
	<circle fill="#CCCCCC" cx="174.021" cy="143.588" r="1.073"/>
	<circle fill="#CCCCCC" cx="178.771" cy="162.587" r="1.073"/>
	<circle fill="#CCCCCC" cx="178.771" cy="157.837" r="1.074"/>
	<circle fill="#CCCCCC" cx="178.771" cy="153.088" r="1.073"/>
	<circle fill="#CCCCCC" cx="178.771" cy="148.338" r="1.074"/>
	<circle fill="#CCCCCC" cx="178.771" cy="143.588" r="1.073"/>
	<circle fill="#CCCCCC" cx="183.521" cy="162.587" r="1.073"/>
	<circle fill="#CCCCCC" cx="183.521" cy="157.837" r="1.074"/>
	<circle fill="#CCCCCC" cx="183.521" cy="153.088" r="1.073"/>
	<circle fill="#CCCCCC" cx="183.521" cy="148.338" r="1.074"/>
	<circle fill="#CCCCCC" cx="183.521" cy="143.588" r="1.073"/>
</g>
<g>
	<g>
		
			<rect x="169.639" y="83.799" transform="matrix(0.7071 0.7071 -0.7071 0.7071 110.8441 -98.4883)" fill="#454D52" width="9.325" height="1.501"/>
	</g>
	<g>
		
			<rect x="173.551" y="79.887" transform="matrix(0.7068 0.7074 -0.7074 0.7068 110.9216 -98.5151)" fill="#454D52" width="1.501" height="9.325"/>
	</g>
</g>
<g>
	<g>
		
			<rect x="69.834" y="21.24" transform="matrix(0.7072 0.707 -0.707 0.7072 36.8335 -45.4561)" fill="#454D52" width="6.922" height="1.001"/>
	</g>
	<g>
		
			<rect x="72.794" y="18.279" transform="matrix(0.7074 0.7069 -0.7069 0.7074 36.8171 -45.4472)" fill="#454D52" width="1.002" height="6.922"/>
	</g>
</g>
<g>
	<g>
		
			<rect x="52.89" y="158.979" transform="matrix(0.707 0.7072 -0.7072 0.707 129.8257 6.0976)" fill="#A6A6A6" width="9.328" height="1.502"/>
	</g>
	<g>
		
			<rect x="56.802" y="155.066" transform="matrix(0.7066 0.7076 -0.7076 0.7066 129.9088 6.1367)" fill="#A6A6A6" width="1.503" height="9.326"/>
	</g>
</g>
<g>
	<polygon fill="#A8A8A8" points="155.875,185.986 154.693,185.06 157.791,181.104 154.329,176.682 157.791,172.262 154.329,167.841 
		157.791,163.421 154.329,159 157.791,154.578 154.691,150.62 155.876,149.694 159.699,154.578 156.238,159 159.699,163.421 
		156.238,167.841 159.699,172.262 156.238,176.682 159.699,181.104 	"/>
</g>
<g>
	<polygon fill="#5E5E5E" points="56.361,182.589 50.374,177.901 51.608,176.323 56.361,180.045 61.73,175.841 67.1,180.045 
		72.471,175.841 77.841,180.045 83.21,175.841 88.581,180.045 93.952,175.841 99.324,180.045 104.08,176.323 105.313,177.901 
		99.324,182.589 93.952,178.384 88.581,182.589 83.21,178.384 77.841,182.589 72.471,178.384 67.1,182.589 61.73,178.384 	"/>
</g>
<g>
	<polygon fill="#A8A8A8" points="78.137,39.377 73.533,35.773 69.394,39.015 68.468,37.832 73.533,33.866 78.137,37.47 
		82.739,33.866 87.342,37.47 91.946,33.866 96.551,37.47 100.693,34.228 101.617,35.411 96.551,39.377 91.946,35.773 87.342,39.377 
		82.739,35.773 	"/>
</g>
<g>
	<g>
		<g enable-background="new    ">
			<defs>
				<polygon id="SVGID_1_" enable-background="new    " points="48.238,76.965 77.787,114.513 52.73,143.135 24.265,106.309 				"/>
			</defs>
			
				<linearGradient id="SVGID_2_" gradientUnits="userSpaceOnUse" x1="-96.4653" y1="113.4238" x2="-58.8223" y2="113.4238" gradientTransform="matrix(-0.783 0.6221 -0.6221 -0.783 60.25 247.1626)">
				<stop  offset="0" style="stop-color:#1C1C1C"/>
				<stop  offset="0.0345" style="stop-color:#1D1D1D"/>
				<stop  offset="1" style="stop-color:#444444"/>
			</linearGradient>
			<use xlink:href="#SVGID_1_"  overflow="visible" fill="url(#SVGID_2_)"/>
			<clipPath id="SVGID_3_">
				<use xlink:href="#SVGID_1_"  overflow="visible"/>
			</clipPath>
			<g clip-path="url(#SVGID_3_)">
				<g>
					<defs>
						<polygon id="SVGID_4_" points="24.265,106.309 48.238,76.965 77.787,114.513 52.73,143.135 24.265,106.309 						"/>
					</defs>
					<clipPath id="SVGID_5_">
						<use xlink:href="#SVGID_4_"  overflow="visible"/>
					</clipPath>
				</g>
			</g>
		</g>
	</g>
	<g>
		<image overflow="visible" width="59" height="49" xlink:href="A5B41B3D.png"  transform="matrix(1 0 0 1 48 66)">
		</image>
	</g>
	<g>
		
			<linearGradient id="SVGID_6_" gradientUnits="userSpaceOnUse" x1="-94.1479" y1="89.4785" x2="-90.1868" y2="77.9744" gradientTransform="matrix(-0.783 0.6221 -0.6221 -0.783 60.25 247.1626)">
			<stop  offset="0" style="stop-color:#5E5E5E"/>
			<stop  offset="1" style="stop-color:#4C4C4C"/>
		</linearGradient>
		<polygon fill="url(#SVGID_6_)" points="77.787,114.513 106.894,102.458 81.875,130.469 52.73,143.135 		"/>
	</g>
	<g>
		<g>
			<polygon fill="#636363" points="77.787,114.513 106.894,102.458 81.875,130.469 52.73,143.135 			"/>
			
				<linearGradient id="SVGID_7_" gradientUnits="userSpaceOnUse" x1="99.2188" y1="104.6914" x2="75.9863" y2="132.3788" gradientTransform="matrix(0.9151 0.0296 -0.0296 0.9151 2.8687 11.7695)">
				<stop  offset="0" style="stop-color:#606060"/>
				<stop  offset="1" style="stop-color:#616161"/>
			</linearGradient>
			<polygon fill="url(#SVGID_7_)" points="77.787,114.513 106.894,102.458 81.875,130.469 52.73,143.135 			"/>
			
				<linearGradient id="SVGID_8_" gradientUnits="userSpaceOnUse" x1="109.7744" y1="97.3354" x2="84.0394" y2="128.0052" gradientTransform="matrix(0.8302 0.0592 -0.0592 0.8302 5.7383 23.5391)">
				<stop  offset="0" style="stop-color:#5D5D5D"/>
				<stop  offset="1" style="stop-color:#5F5F5F"/>
			</linearGradient>
			<polygon fill="url(#SVGID_8_)" points="77.787,114.513 106.894,102.458 81.875,130.469 52.73,143.135 			"/>
			
				<linearGradient id="SVGID_9_" gradientUnits="userSpaceOnUse" x1="121.9551" y1="87.4443" x2="93.2349" y2="121.6717" gradientTransform="matrix(0.7453 0.0889 -0.0889 0.7453 8.6069 35.3091)">
				<stop  offset="0" style="stop-color:#5A5A5A"/>
				<stop  offset="1" style="stop-color:#5D5D5D"/>
			</linearGradient>
			<polygon fill="url(#SVGID_9_)" points="77.787,114.513 106.894,102.458 81.875,130.469 52.73,143.135 			"/>
			
				<linearGradient id="SVGID_10_" gradientUnits="userSpaceOnUse" x1="135.8545" y1="73.9014" x2="103.5725" y2="112.3736" gradientTransform="matrix(0.6604 0.1185 -0.1185 0.6604 11.4766 47.0786)">
				<stop  offset="0" style="stop-color:#565656"/>
				<stop  offset="0.9031" style="stop-color:#595959"/>
				<stop  offset="1" style="stop-color:#5A5A5A"/>
			</linearGradient>
			<polygon fill="url(#SVGID_10_)" points="77.787,114.513 106.894,102.458 81.875,130.469 52.73,143.135 			"/>
			
				<linearGradient id="SVGID_11_" gradientUnits="userSpaceOnUse" x1="151.209" y1="55.0498" x2="114.7234" y2="98.5316" gradientTransform="matrix(0.5755 0.1481 -0.1481 0.5755 14.3455 58.8481)">
				<stop  offset="0" style="stop-color:#535353"/>
				<stop  offset="0.825" style="stop-color:#565656"/>
				<stop  offset="1" style="stop-color:#585858"/>
			</linearGradient>
			<polygon fill="url(#SVGID_11_)" points="77.787,114.513 106.894,102.458 81.875,130.469 52.73,143.135 			"/>
			
				<linearGradient id="SVGID_12_" gradientUnits="userSpaceOnUse" x1="166.8447" y1="28.5776" x2="125.5759" y2="77.7599" gradientTransform="matrix(0.4906 0.1777 -0.1777 0.4906 17.2141 70.6177)">
				<stop  offset="0" style="stop-color:#505050"/>
				<stop  offset="0.7663" style="stop-color:#535353"/>
				<stop  offset="1" style="stop-color:#565656"/>
			</linearGradient>
			<polygon fill="url(#SVGID_12_)" points="77.787,114.513 106.894,102.458 81.875,130.469 52.73,143.135 			"/>
			
				<linearGradient id="SVGID_13_" gradientUnits="userSpaceOnUse" x1="179.6914" y1="-8.0186" x2="133.5004" y2="47.0298" gradientTransform="matrix(0.4057 0.2074 -0.2074 0.4057 20.0831 82.3877)">
				<stop  offset="0" style="stop-color:#4D4D4D"/>
				<stop  offset="0.7199" style="stop-color:#505050"/>
				<stop  offset="1" style="stop-color:#545454"/>
			</linearGradient>
			<polygon fill="url(#SVGID_13_)" points="77.787,114.513 106.894,102.458 81.875,130.469 52.73,143.135 			"/>
			
				<linearGradient id="SVGID_14_" gradientUnits="userSpaceOnUse" x1="181.9658" y1="-56.312" x2="132.0466" y2="3.1794" gradientTransform="matrix(0.3208 0.237 -0.237 0.3208 22.9525 94.1567)">
				<stop  offset="0" style="stop-color:#4A4A4A"/>
				<stop  offset="0.682" style="stop-color:#4D4D4D"/>
				<stop  offset="1" style="stop-color:#525252"/>
			</linearGradient>
			<polygon fill="url(#SVGID_14_)" points="77.787,114.513 106.894,102.458 81.875,130.469 52.73,143.135 			"/>
			
				<linearGradient id="SVGID_15_" gradientUnits="userSpaceOnUse" x1="160.4863" y1="-111.397" x2="110.8313" y2="-52.2204" gradientTransform="matrix(0.2359 0.2666 -0.2666 0.2359 25.8208 105.9272)">
				<stop  offset="0" style="stop-color:#474747"/>
				<stop  offset="0.6502" style="stop-color:#4A4A4A"/>
				<stop  offset="1" style="stop-color:#505050"/>
			</linearGradient>
			<polygon fill="url(#SVGID_15_)" points="77.787,114.513 106.894,102.458 81.875,130.469 52.73,143.135 			"/>
			
				<linearGradient id="SVGID_16_" gradientUnits="userSpaceOnUse" x1="104.1973" y1="-154.7314" x2="62.1874" y2="-104.6661" gradientTransform="matrix(0.151 0.2962 -0.2962 0.151 28.6908 117.6968)">
				<stop  offset="0" style="stop-color:#444444"/>
				<stop  offset="0.623" style="stop-color:#474747"/>
				<stop  offset="1" style="stop-color:#4E4E4E"/>
			</linearGradient>
			<polygon fill="url(#SVGID_16_)" points="77.787,114.513 106.894,102.458 81.875,130.469 52.73,143.135 			"/>
			
				<linearGradient id="SVGID_17_" gradientUnits="userSpaceOnUse" x1="22.5376" y1="-162.1548" x2="-4.5652" y2="-129.855" gradientTransform="matrix(0.066 0.3259 -0.3259 0.066 31.5596 129.4663)">
				<stop  offset="0" style="stop-color:#404040"/>
				<stop  offset="0.5994" style="stop-color:#434343"/>
				<stop  offset="1" style="stop-color:#4B4B4B"/>
			</linearGradient>
			<polygon fill="url(#SVGID_17_)" points="77.787,114.513 106.894,102.458 81.875,130.469 52.73,143.135 			"/>
			
				<linearGradient id="SVGID_18_" gradientUnits="userSpaceOnUse" x1="-52.6768" y1="-131.4824" x2="-65.1582" y2="-116.6076" gradientTransform="matrix(-0.0189 0.3555 -0.3555 -0.0189 34.4285 141.2361)">
				<stop  offset="0" style="stop-color:#3D3D3D"/>
				<stop  offset="0.5786" style="stop-color:#404040"/>
				<stop  offset="1" style="stop-color:#494949"/>
			</linearGradient>
			<polygon fill="url(#SVGID_18_)" points="77.787,114.513 106.894,102.458 81.875,130.469 52.73,143.135 			"/>
			
				<linearGradient id="SVGID_19_" gradientUnits="userSpaceOnUse" x1="-95.1445" y1="-90.0366" x2="-107.5253" y2="-75.2818" gradientTransform="matrix(-0.1038 0.3851 -0.3851 -0.1038 37.2974 153.0054)">
				<stop  offset="0" style="stop-color:#3A3A3A"/>
				<stop  offset="0.5602" style="stop-color:#3D3D3D"/>
				<stop  offset="0.9972" style="stop-color:#474747"/>
				<stop  offset="1" style="stop-color:#474747"/>
			</linearGradient>
			<polygon fill="url(#SVGID_19_)" points="77.787,114.513 106.894,102.458 81.875,130.469 52.73,143.135 			"/>
			
				<linearGradient id="SVGID_20_" gradientUnits="userSpaceOnUse" x1="-114.6699" y1="-47.2783" x2="-126.0252" y2="-33.7457" gradientTransform="matrix(-0.1887 0.4147 -0.4147 -0.1887 40.166 164.7745)">
				<stop  offset="0" style="stop-color:#373737"/>
				<stop  offset="0.5436" style="stop-color:#3A3A3A"/>
				<stop  offset="0.9676" style="stop-color:#444444"/>
				<stop  offset="1" style="stop-color:#454545"/>
			</linearGradient>
			<polygon fill="url(#SVGID_20_)" points="77.787,114.513 106.894,102.458 81.875,130.469 52.73,143.135 			"/>
			
				<linearGradient id="SVGID_21_" gradientUnits="userSpaceOnUse" x1="-118.147" y1="-13.7773" x2="-131.3519" y2="1.9597" gradientTransform="matrix(-0.2736 0.4444 -0.4444 -0.2736 43.0352 176.5444)">
				<stop  offset="0" style="stop-color:#343434"/>
				<stop  offset="0.5286" style="stop-color:#373737"/>
				<stop  offset="0.941" style="stop-color:#414141"/>
				<stop  offset="1" style="stop-color:#434343"/>
			</linearGradient>
			<polygon fill="url(#SVGID_21_)" points="77.787,114.513 106.894,102.458 81.875,130.469 52.73,143.135 			"/>
			
				<linearGradient id="SVGID_22_" gradientUnits="userSpaceOnUse" x1="-115.0254" y1="12.2676" x2="-129.8724" y2="29.9616" gradientTransform="matrix(-0.3585 0.474 -0.474 -0.3585 45.9038 188.314)">
				<stop  offset="0" style="stop-color:#313131"/>
				<stop  offset="0.515" style="stop-color:#343434"/>
				<stop  offset="0.9167" style="stop-color:#3E3E3E"/>
				<stop  offset="1" style="stop-color:#414141"/>
			</linearGradient>
			<polygon fill="url(#SVGID_22_)" points="77.787,114.513 106.894,102.458 81.875,130.469 52.73,143.135 			"/>
			
				<linearGradient id="SVGID_23_" gradientUnits="userSpaceOnUse" x1="-109.4722" y1="32.3975" x2="-124.7794" y2="50.64" gradientTransform="matrix(-0.4434 0.5036 -0.5036 -0.4434 48.7729 200.084)">
				<stop  offset="0" style="stop-color:#2E2E2E"/>
				<stop  offset="0.5025" style="stop-color:#313131"/>
				<stop  offset="0.8944" style="stop-color:#3B3B3B"/>
				<stop  offset="1" style="stop-color:#3F3F3F"/>
			</linearGradient>
			<polygon fill="url(#SVGID_23_)" points="77.787,114.513 106.894,102.458 81.875,130.469 52.73,143.135 			"/>
			
				<linearGradient id="SVGID_24_" gradientUnits="userSpaceOnUse" x1="-103.2222" y1="47.9331" x2="-118.3781" y2="65.9953" gradientTransform="matrix(-0.5283 0.5332 -0.5332 -0.5283 51.6426 211.8535)">
				<stop  offset="0" style="stop-color:#2A2A2A"/>
				<stop  offset="0.4911" style="stop-color:#2D2D2D"/>
				<stop  offset="0.874" style="stop-color:#373737"/>
				<stop  offset="1" style="stop-color:#3C3C3C"/>
			</linearGradient>
			<polygon fill="url(#SVGID_24_)" points="77.787,114.513 106.894,102.458 81.875,130.469 52.73,143.135 			"/>
			
				<linearGradient id="SVGID_25_" gradientUnits="userSpaceOnUse" x1="-97.0527" y1="60.042" x2="-111.7572" y2="77.5661" gradientTransform="matrix(-0.6132 0.5629 -0.5629 -0.6132 54.5117 223.623)">
				<stop  offset="0" style="stop-color:#272727"/>
				<stop  offset="0.4804" style="stop-color:#2A2A2A"/>
				<stop  offset="0.8551" style="stop-color:#343434"/>
				<stop  offset="1" style="stop-color:#3A3A3A"/>
			</linearGradient>
			<polygon fill="url(#SVGID_25_)" points="77.787,114.513 106.894,102.458 81.875,130.469 52.73,143.135 			"/>
			
				<linearGradient id="SVGID_26_" gradientUnits="userSpaceOnUse" x1="-91.2866" y1="69.6055" x2="-105.4033" y2="86.4291" gradientTransform="matrix(-0.6981 0.5925 -0.5925 -0.6981 57.3809 235.3926)">
				<stop  offset="0" style="stop-color:#242424"/>
				<stop  offset="0.4706" style="stop-color:#272727"/>
				<stop  offset="0.8376" style="stop-color:#313131"/>
				<stop  offset="1" style="stop-color:#383838"/>
			</linearGradient>
			<polygon fill="url(#SVGID_26_)" points="77.787,114.513 106.894,102.458 81.875,130.469 52.73,143.135 			"/>
			
				<linearGradient id="SVGID_27_" gradientUnits="userSpaceOnUse" x1="-86.0269" y1="77.2739" x2="-99.5087" y2="93.3409" gradientTransform="matrix(-0.783 0.6221 -0.6221 -0.783 60.25 247.1626)">
				<stop  offset="0" style="stop-color:#212121"/>
				<stop  offset="0.4613" style="stop-color:#242424"/>
				<stop  offset="0.8211" style="stop-color:#2E2E2E"/>
				<stop  offset="1" style="stop-color:#363636"/>
			</linearGradient>
			<polygon fill="url(#SVGID_27_)" points="77.787,114.513 106.894,102.458 81.875,130.469 52.73,143.135 			"/>
		</g>
	</g>
</g>
<image overflow="visible" width="60" height="47" xlink:href="A5B41B3B.png"  transform="matrix(1 0 0 1 53 96)">
</image>
<image overflow="visible" width="84" height="84" xlink:href="A5B41B44.png"  transform="matrix(1 0 0 1 66 110)">
</image>
<g opacity="0.7">
	<g opacity="0">
		<polygon fill="#FFFFFF" points="101.617,104.806 69.808,101.109 69.158,73.378 102.93,77.548 		"/>
	</g>
	<g opacity="0.0385">
		<polygon fill="#F8F8F8" points="101.698,104.766 70.198,101.037 69.517,73.519 102.923,77.686 		"/>
	</g>
	<g opacity="0.0769">
		<polygon fill="#F1F1F1" points="101.78,104.726 70.587,100.966 69.875,73.66 102.916,77.823 		"/>
	</g>
	<g opacity="0.1154">
		<polygon fill="#E9E9E9" points="101.861,104.686 70.977,100.894 70.234,73.8 102.909,77.961 		"/>
	</g>
	<g opacity="0.1538">
		<polygon fill="#E2E2E2" points="101.943,104.646 71.367,100.822 70.594,73.941 102.903,78.099 		"/>
	</g>
	<g opacity="0.1923">
		<polygon fill="#DBDBDB" points="102.024,104.605 71.757,100.75 70.952,74.083 102.896,78.237 		"/>
	</g>
	<g opacity="0.2308">
		<polygon fill="#D4D4D4" points="102.105,104.565 72.146,100.678 71.311,74.223 102.89,78.374 		"/>
	</g>
	<g opacity="0.2692">
		<polygon fill="#CDCDCD" points="102.188,104.525 72.536,100.606 71.669,74.363 102.883,78.512 		"/>
	</g>
	<g opacity="0.3077">
		<polygon fill="#C5C5C5" points="102.269,104.486 72.926,100.535 72.028,74.505 102.877,78.649 		"/>
	</g>
	<g opacity="0.3462">
		<polygon fill="#BEBEBE" points="102.35,104.446 73.316,100.463 72.387,74.646 102.87,78.788 		"/>
	</g>
	<g opacity="0.3846">
		<polygon fill="#B7B7B7" points="102.432,104.406 73.706,100.391 72.746,74.787 102.863,78.925 		"/>
	</g>
	<g opacity="0.4231">
		<polygon fill="#B0B0B0" points="102.513,104.366 74.096,100.319 73.104,74.927 102.856,79.063 		"/>
	</g>
	<g opacity="0.4615">
		<polygon fill="#A9A9A9" points="102.595,104.326 74.485,100.248 73.464,75.068 102.85,79.201 		"/>
	</g>
	<g opacity="0.5">
		<polygon fill="#A2A2A2" points="102.676,104.286 74.876,100.176 73.822,75.209 102.844,79.338 		"/>
	</g>
	<g opacity="0.5385">
		<polygon fill="#9A9A9A" points="102.757,104.246 75.265,100.104 74.181,75.35 102.836,79.476 		"/>
	</g>
	<g opacity="0.5769">
		<polygon fill="#939393" points="102.839,104.206 75.655,100.032 74.54,75.49 102.83,79.613 		"/>
	</g>
	<g opacity="0.6154">
		<polygon fill="#8C8C8C" points="102.92,104.166 76.045,99.96 74.898,75.632 102.823,79.751 		"/>
	</g>
	<g opacity="0.6538">
		<polygon fill="#858585" points="103.002,104.127 76.435,99.889 75.257,75.772 102.816,79.889 		"/>
	</g>
	<g opacity="0.6923">
		<polygon fill="#7E7E7E" points="103.083,104.086 76.825,99.816 75.616,75.913 102.811,80.026 		"/>
	</g>
	<g opacity="0.7308">
		<polygon fill="#767676" points="103.164,104.047 77.214,99.745 75.975,76.054 102.803,80.165 		"/>
	</g>
	<g opacity="0.7692">
		<polygon fill="#6F6F6F" points="103.246,104.006 77.604,99.673 76.333,76.195 102.797,80.302 		"/>
	</g>
	<g opacity="0.8077">
		<polygon fill="#686868" points="103.327,103.966 77.994,99.601 76.692,76.336 102.79,80.439 		"/>
	</g>
	<g opacity="0.8462">
		<polygon fill="#616161" points="103.408,103.926 78.384,99.529 77.052,76.477 102.783,80.578 		"/>
	</g>
	<g opacity="0.8846">
		<polygon fill="#5A5A5A" points="103.49,103.887 78.774,99.458 77.41,76.618 102.777,80.715 		"/>
	</g>
	<g opacity="0.9231">
		<polygon fill="#525252" points="103.571,103.847 79.164,99.385 77.769,76.759 102.77,80.853 		"/>
	</g>
	<g opacity="0.9615">
		<polygon fill="#4B4B4B" points="103.653,103.807 79.554,99.314 78.127,76.899 102.764,80.991 		"/>
	</g>
	<g>
		<polygon fill="#444444" points="103.734,103.767 79.943,99.242 78.486,77.04 102.757,81.128 		"/>
	</g>
</g>
<g>
	
		<linearGradient id="SVGID_28_" gradientUnits="userSpaceOnUse" x1="100.8726" y1="111.5918" x2="74.1822" y2="84.4205" gradientTransform="matrix(-0.1946 0.9809 0.9809 0.1946 18.0742 -20.8779)">
		<stop  offset="0" style="stop-color:#D2D8DB"/>
		<stop  offset="1" style="stop-color:#B6BDC2"/>
	</linearGradient>
	<polygon fill="url(#SVGID_28_)" points="122.571,80.829 89.729,74.471 79.943,99.242 111.99,105.157 	"/>
	<g>
		<image overflow="visible" width="36" height="29" xlink:href="A5B41B47.png"  transform="matrix(1 0 0 1 87 52)">
		</image>
	</g>
	<g>
		<polygon fill="#F8F9FA" points="89.729,74.471 87.903,52.489 78.486,77.04 79.943,99.242 		"/>
		
			<linearGradient id="SVGID_29_" gradientUnits="userSpaceOnUse" x1="84.2212" y1="77.6113" x2="74.3076" y2="66.9803" gradientTransform="matrix(0.9861 0.1661 -0.1661 0.9861 17.7925 -8.5576)">
			<stop  offset="0" style="stop-color:#A5ABB0"/>
			<stop  offset="0.4615" style="stop-color:#B2B8BC"/>
			<stop  offset="1" style="stop-color:#C7CDD0"/>
		</linearGradient>
		<polygon fill="url(#SVGID_29_)" points="89.729,74.471 87.903,52.489 78.486,77.04 79.943,99.242 		"/>
	</g>
</g>
<image overflow="visible" width="43" height="22" xlink:href="A5B41B45.png"  transform="matrix(1 0 0 1 90 59)">
</image>
<g>
	<image overflow="visible" width="46" height="46" xlink:href="A5B41B4B.png"  transform="matrix(1 0 0 1 100 28)">
	</image>
</g>
<g>
	<defs>
		<path id="SVGID_30_" d="M144.397,45.155c-1.533-5.51-5.169-10.436-10.542-13.47c-5.374-3.034-11.471-3.603-16.979-2.07
			c-5.512,1.533-10.436,5.169-13.47,10.543c-3.035,5.374-3.605,11.469-2.07,16.979c1.533,5.511,5.167,10.436,10.542,13.471
			c5.374,3.034,11.469,3.603,16.979,2.07c5.51-1.533,10.437-5.169,13.469-10.543C145.361,56.76,145.931,50.665,144.397,45.155z"/>
	</defs>
	<clipPath id="SVGID_31_">
		<use xlink:href="#SVGID_30_"  overflow="visible"/>
	</clipPath>
	<g clip-path="url(#SVGID_31_)">
		<image overflow="visible" width="29" height="24" xlink:href="A5B41B4C.png"  transform="matrix(1 0 0 1 99 24)">
		</image>
	</g>
</g>
<image overflow="visible" width="30" height="30" xlink:href="A5B41B4F.png"  transform="matrix(1 0 0 1 90 9)">
</image>
<g>
	<polygon fill="#A8A8A8" points="183.599,133.172 178.551,128.124 179.259,127.416 183.599,131.756 187.783,127.574 188.49,128.282 
			"/>
</g>
<g>
	<polygon fill="#454D52" points="27.985,92.375 20.661,85.051 13.601,92.111 12.54,91.05 20.661,82.928 29.046,91.313 	"/>
</g>
<rect x="84.655" y="151.137" fill="none" width="54.395" height="22.898"/>
<text transform="matrix(1 0 0 1 87.207 157.2236)"><tspan x="0" y="0" fill="#1A171B" font-family="'OpenSans-Light'" font-size="8.0092">Herramientas </tspan><tspan x="9.875" y="9.611" fill="#1A171B" font-family="'OpenSans-Regular'" font-size="8.0092">teóricas</tspan></text>
</svg>
