<?xml version="1.0" encoding="utf-8"?>
<!-- Generator: Adobe Illustrator 16.0.0, SVG Export Plug-In . SVG Version: 6.00 Build 0)  -->
<!DOCTYPE svg PUBLIC "-//W3C//DTD SVG 1.1//EN" "http://www.w3.org/Graphics/SVG/1.1/DTD/svg11.dtd">
<svg version="1.1" id="Capa_1" xmlns="http://www.w3.org/2000/svg" xmlns:xlink="http://www.w3.org/1999/xlink" x="0px" y="0px"
	 viewBox="0 0 200 200" enable-background="new 0 0 200 200" xml:space="preserve">
<polygon fill="#0C4B86" stroke="#0C4B86" stroke-miterlimit="10" points="100.713,24.272 120.155,57.946 139.595,91.62 
	100.713,91.62 61.83,91.62 81.271,57.946 "/>
<polygon fill="#FFBD1F" stroke="#FFBD1F" stroke-miterlimit="10" points="42.975,124.276 62.417,157.95 81.857,191.625 
	42.975,191.625 4.092,191.625 23.532,157.95 "/>
<polygon fill="#009DDF" stroke="#009DDF" stroke-miterlimit="10" points="158.452,124.276 177.892,157.95 197.334,191.625 
	158.452,191.625 119.569,191.625 139.008,157.95 "/>
<text transform="matrix(1 0 0 1 75.1606 122.6055)"><tspan x="0" y="0" fill="#0C4B86" font-family="'MyriadPro-Regular'" 
font-size="11">los 3 grandes </tspan><tspan x="-11.283" y="11.924" fill="#0C4B86" font-family="'MyriadPro-Regular'" 
font-size="11">sistemas de cultura</tspan></text>
<text transform="matrix(1 0 0 1 83.4014 72.4795)" fill="#FFFFFF" font-family="'MyriadPro-Regular'" font-size="9.9365">CIENCIA</text>
<text transform="matrix(1 0 0 1 143.7295 174.958)" fill="#FFFFFF" font-family="'MyriadPro-Regular'" font-size="9.9365">MORAL</text>
<text transform="matrix(1 0 0 1 31.0796 174.8027)" fill="#FFFFFF" font-family="'MyriadPro-Regular'" font-size="9.9365">ARTE</text>
</svg>
