<?xml version="1.0" encoding="utf-8"?>
<!-- Generator: Adobe Illustrator 16.0.0, SVG Export Plug-In . SVG Version: 6.00 Build 0)  -->
<!DOCTYPE svg PUBLIC "-//W3C//DTD SVG 1.1//EN" "http://www.w3.org/Graphics/SVG/1.1/DTD/svg11.dtd">
<svg version="1.1" id="Capa_1" xmlns="http://www.w3.org/2000/svg" xmlns:xlink="http://www.w3.org/1999/xlink" x="0px" y="0px"
	 viewBox="0 0 400 400" enable-background="new 0 0 400 400" xml:space="preserve">
<g>
	<g>
		<path fill="#E85D10" d="M49.939,359.05c-2.761,0-5-2.238-5-5V43.912c0-2.761,2.239-5,5-5h310.137c2.762,0,5,2.239,5,5V354.05
			c0,2.762-2.238,5-5,5H49.939z"/>
		<path fill="#3D3D3F" d="M360.076,43.912V354.05H49.939V43.912H360.076 M360.076,33.912H49.939c-5.523,0-10,4.477-10,10V354.05
			c0,5.521,4.477,10,10,10h310.137c5.523,0,10-4.479,10-10V43.912C370.076,38.389,365.6,33.912,360.076,33.912L360.076,33.912z"/>
	</g>
	<g>
		<path fill="#E85D10" d="M44.555,354.741c-2.761,0-5-2.238-5-5V39.604c0-2.761,2.239-5,5-5h310.139c2.762,0,5,2.239,5,5v310.137
			c0,2.762-2.238,5-5,5H44.555z"/>
		<path fill="#58585A" d="M354.693,39.604v310.137H44.555V39.604H354.693 M354.693,29.604H44.555c-5.523,0-10,4.477-10,10v310.137
			c0,5.523,4.477,10,10,10h310.139c5.521,0,10-4.477,10-10V39.604C364.693,34.082,360.215,29.604,354.693,29.604L354.693,29.604z"/>
	</g>
</g>
<g>
	<g>
		
			<rect x="46.695" y="42.604" fill="#91AE51" stroke="#868789" stroke-width="5" stroke-linecap="square" stroke-linejoin="round" stroke-miterlimit="10" width="72" height="72"/>
		
			<rect x="45.695" y="41.604" fill="#91AE51" stroke="#D8D9DA" stroke-width="5" stroke-linecap="square" stroke-linejoin="round" stroke-miterlimit="10" width="72" height="72"/>
	</g>
	
		<text transform="matrix(1 0 0 1 71.4614 87.1045)" fill="#FFFFFF" font-family="'MyriadPro-Regular'" font-size="36" letter-spacing="1">1</text>
</g>
<g>
	<g>
		
			<rect x="124.695" y="42.604" fill="#91AE51" stroke="#868789" stroke-width="5" stroke-linecap="square" stroke-linejoin="round" stroke-miterlimit="10" width="72" height="72"/>
		
			<rect x="123.695" y="41.604" fill="#91AE51" stroke="#D8D9DA" stroke-width="5" stroke-linecap="square" stroke-linejoin="round" stroke-miterlimit="10" width="72" height="72"/>
	</g>
	
		<text transform="matrix(1 0 0 1 149.4614 87.1045)" fill="#FFFFFF" font-family="'MyriadPro-Regular'" font-size="36" letter-spacing="1">2</text>
</g>
<g>
	<g>
		
			<rect x="47.055" y="120.938" fill="#91AE51" stroke="#868789" stroke-width="5" stroke-linecap="square" stroke-linejoin="round" stroke-miterlimit="10" width="72" height="72"/>
		
			<rect x="46.055" y="119.938" fill="#91AE51" stroke="#D8D9DA" stroke-width="5" stroke-linecap="square" stroke-linejoin="round" stroke-miterlimit="10" width="72" height="72"/>
	</g>
	
		<text transform="matrix(1 0 0 1 71.8208 164.9375)" fill="#FFFFFF" font-family="'MyriadPro-Regular'" font-size="36" letter-spacing="1">5</text>
</g>
<g>
	<g>
		
			<rect x="125.055" y="120.938" fill="#91AE51" stroke="#868789" stroke-width="5" stroke-linecap="square" stroke-linejoin="round" stroke-miterlimit="10" width="72" height="72"/>
		
			<rect x="124.055" y="119.938" fill="#91AE51" stroke="#D8D9DA" stroke-width="5" stroke-linecap="square" stroke-linejoin="round" stroke-miterlimit="10" width="72" height="72"/>
	</g>
	
		<text transform="matrix(1 0 0 1 149.8208 164.9375)" fill="#FFFFFF" font-family="'MyriadPro-Regular'" font-size="36" letter-spacing="1">6</text>
</g>
<g>
	<g>
		
			<rect x="202.695" y="42.604" fill="#91AE51" stroke="#868789" stroke-width="5" stroke-linecap="square" stroke-linejoin="round" stroke-miterlimit="10" width="72" height="72"/>
		
			<rect x="201.695" y="41.604" fill="#91AE51" stroke="#D8D9DA" stroke-width="5" stroke-linecap="square" stroke-linejoin="round" stroke-miterlimit="10" width="72" height="72"/>
	</g>
	
		<text transform="matrix(1 0 0 1 229.4609 87.1045)" fill="#FFFFFF" font-family="'MyriadPro-Regular'" font-size="36" letter-spacing="1">3</text>
</g>
<g>
	<g>
		
			<rect x="280.695" y="42.604" fill="#91AE51" stroke="#868789" stroke-width="5" stroke-linecap="square" stroke-linejoin="round" stroke-miterlimit="10" width="72" height="72"/>
		
			<rect x="279.695" y="41.604" fill="#91AE51" stroke="#D8D9DA" stroke-width="5" stroke-linecap="square" stroke-linejoin="round" stroke-miterlimit="10" width="72" height="72"/>
	</g>
	
		<text transform="matrix(1 0 0 1 307.4609 87.1045)" fill="#FFFFFF" font-family="'MyriadPro-Regular'" font-size="36" letter-spacing="1">4</text>
</g>
<g>
	<g>
		
			<rect x="203.055" y="120.938" fill="#91AE51" stroke="#868789" stroke-width="5" stroke-linecap="square" stroke-linejoin="round" stroke-miterlimit="10" width="72" height="72"/>
		
			<rect x="202.055" y="119.938" fill="#91AE51" stroke="#D8D9DA" stroke-width="5" stroke-linecap="square" stroke-linejoin="round" stroke-miterlimit="10" width="72" height="72"/>
	</g>
	
		<text transform="matrix(1 0 0 1 229.8203 164.9375)" fill="#FFFFFF" font-family="'MyriadPro-Regular'" font-size="36" letter-spacing="1">7</text>
</g>
<g>
	<g>
		
			<rect x="281.055" y="120.938" fill="#91AE51" stroke="#868789" stroke-width="5" stroke-linecap="square" stroke-linejoin="round" stroke-miterlimit="10" width="72" height="72"/>
		
			<rect x="280.055" y="119.938" fill="#91AE51" stroke="#D8D9DA" stroke-width="5" stroke-linecap="square" stroke-linejoin="round" stroke-miterlimit="10" width="72" height="72"/>
	</g>
	
		<text transform="matrix(1 0 0 1 307.8203 164.9375)" fill="#FFFFFF" font-family="'MyriadPro-Regular'" font-size="36" letter-spacing="1">8</text>
</g>
<g>
	<g>
		
			<rect x="47.555" y="198.605" fill="#91AE51" stroke="#868789" stroke-width="5" stroke-linecap="square" stroke-linejoin="round" stroke-miterlimit="10" width="72" height="72"/>
		
			<rect x="46.555" y="197.605" fill="#91AE51" stroke="#D8D9DA" stroke-width="5" stroke-linecap="square" stroke-linejoin="round" stroke-miterlimit="10" width="72" height="72"/>
	</g>
	
		<text transform="matrix(1 0 0 1 75.3208 245.1045)" fill="#FFFFFF" font-family="'MyriadPro-Regular'" font-size="36" letter-spacing="1">9</text>
</g>
<g>
	<g>
		
			<rect x="125.555" y="198.605" fill="#91AE51" stroke="#868789" stroke-width="5" stroke-linecap="square" stroke-linejoin="round" stroke-miterlimit="10" width="72" height="72"/>
		
			<rect x="124.555" y="197.605" fill="#91AE51" stroke="#D8D9DA" stroke-width="5" stroke-linecap="square" stroke-linejoin="round" stroke-miterlimit="10" width="72" height="72"/>
	</g>
	
		<text transform="matrix(1 0 0 1 138.3672 245.1045)" fill="#FFFFFF" font-family="'MyriadPro-Regular'" font-size="36" letter-spacing="1">10</text>
</g>
<g>
	<g>
		
			<rect x="47.555" y="276.604" fill="#91AE51" stroke="#868789" stroke-width="5" stroke-linecap="square" stroke-linejoin="round" stroke-miterlimit="10" width="72" height="72"/>
		
			<rect x="46.555" y="275.604" fill="#91AE51" stroke="#D8D9DA" stroke-width="5" stroke-linecap="square" stroke-linejoin="round" stroke-miterlimit="10" width="72" height="72"/>
	</g>
	
		<text transform="matrix(1 0 0 1 62.3672 322.6045)" fill="#FFFFFF" font-family="'MyriadPro-Regular'" font-size="36" letter-spacing="1">13</text>
</g>
<g>
	<g>
		
			<rect x="125.555" y="276.604" fill="#91AE51" stroke="#868789" stroke-width="5" stroke-linecap="square" stroke-linejoin="round" stroke-miterlimit="10" width="72" height="72"/>
		
			<rect x="124.555" y="275.604" fill="#91AE51" stroke="#D8D9DA" stroke-width="5" stroke-linecap="square" stroke-linejoin="round" stroke-miterlimit="10" width="72" height="72"/>
	</g>
	
		<text transform="matrix(1 0 0 1 138.3672 322.6045)" fill="#FFFFFF" font-family="'MyriadPro-Regular'" font-size="36" letter-spacing="1">14</text>
</g>
<g>
	<g>
		
			<rect x="203.555" y="198.605" fill="#91AE51" stroke="#868789" stroke-width="5" stroke-linecap="square" stroke-linejoin="round" stroke-miterlimit="10" width="72" height="72"/>
		
			<rect x="202.555" y="197.605" fill="#91AE51" stroke="#D8D9DA" stroke-width="5" stroke-linecap="square" stroke-linejoin="round" stroke-miterlimit="10" width="72" height="72"/>
	</g>
	
		<text transform="matrix(1 0 0 1 218.3672 245.1045)" fill="#FFFFFF" font-family="'MyriadPro-Regular'" font-size="36" letter-spacing="1">11</text>
</g>
<g>
	<g>
		
			<rect x="281.555" y="198.605" fill="#91AE51" stroke="#868789" stroke-width="5" stroke-linecap="square" stroke-linejoin="round" stroke-miterlimit="10" width="72" height="72"/>
		
			<rect x="280.555" y="197.605" fill="#91AE51" stroke="#D8D9DA" stroke-width="5" stroke-linecap="square" stroke-linejoin="round" stroke-miterlimit="10" width="72" height="72"/>
	</g>
	
		<text transform="matrix(1 0 0 1 296.3672 245.1045)" fill="#FFFFFF" font-family="'MyriadPro-Regular'" font-size="36" letter-spacing="1">12</text>
</g>
<g>
	<g>
		
			<rect x="203.555" y="276.604" fill="#91AE51" stroke="#868789" stroke-width="5" stroke-linecap="square" stroke-linejoin="round" stroke-miterlimit="10" width="72" height="72"/>
		
			<rect x="202.555" y="275.604" fill="#91AE51" stroke="#D8D9DA" stroke-width="5" stroke-linecap="square" stroke-linejoin="round" stroke-miterlimit="10" width="72" height="72"/>
	</g>
	
		<text transform="matrix(1 0 0 1 218.3672 322.6045)" fill="#FFFFFF" font-family="'MyriadPro-Regular'" font-size="36" letter-spacing="1">15</text>
</g>
</svg>
