<?xml version="1.0" encoding="utf-8"?>
<!-- Generator: Adobe Illustrator 16.0.0, SVG Export Plug-In . SVG Version: 6.00 Build 0)  -->
<!DOCTYPE svg PUBLIC "-//W3C//DTD SVG 1.1//EN" "http://www.w3.org/Graphics/SVG/1.1/DTD/svg11.dtd">
<svg version="1.1" id="Capa_1" xmlns="http://www.w3.org/2000/svg" xmlns:xlink="http://www.w3.org/1999/xlink" x="0px" y="0px"
	 width="200px" height="300px" viewBox="0 0 200 300" enable-background="new 0 0 200 300" xml:space="preserve">
<g>
	<path fill="#FFFFFF" d="M167.026,24.536c2.381-0.511,4.886,1.742,4.37,4.202c-0.217,3.176-4.88,4.132-6.606,1.605
		C163.074,28.299,164.541,25.066,167.026,24.536L167.026,24.536z"/>
	<path fill="#FFFFFF" d="M161.982,34.177c1.822-1.75,4.539-1.077,6.812-1.215c1.877-0.132,4.14,0.123,5.244,1.866
		c1.344,2.239,1.683,4.896,2.552,7.329c0.52,2.096,1.647,4.167,1.149,6.374c-0.964,0.333-2.168,0.287-2.639-0.773
		c-1.082-2.94-1.83-5.999-2.849-8.968c-0.124-0.509-0.558-0.819-0.915-1.157c1.378,5.907,3.335,11.665,4.919,17.518
		c-1.448,0.01-2.898,0.02-4.344,0c-0.115,4.183,0.039,8.374-0.069,12.549c0.027,0.956-0.601,2.033-1.653,1.996
		c-1.038,0.081-1.803-0.964-1.682-1.935c-0.053-4.207,0.047-8.417-0.039-12.625c-0.25,0.005-0.76,0.018-1.015,0.03
		c-0.085,4.347,0.089,8.703-0.081,13.046c-0.141,1.96-3.087,1.905-3.272-0.003c-0.092-4.347,0.006-8.702-0.045-13.049
		c-1.461,0.01-2.918,0.006-4.37-0.019c1.376-5.751,2.979-11.448,4.333-17.201c-0.163,0.111-0.495,0.326-0.658,0.433
		c-1.079,3.084-1.736,6.308-2.796,9.395c-0.34,1.4-2.855,1.317-2.882-0.223c0.21-2.372,1.201-4.615,1.785-6.921
		C160.213,38.454,160.413,35.961,161.982,34.177L161.982,34.177z"/>
</g>
<g>
	<path fill="#FFFFFF" d="M167.009,124.646c2.382-0.511,4.885,1.742,4.37,4.202c-0.215,3.177-4.881,4.132-6.605,1.605
		C163.057,128.409,164.522,125.176,167.009,124.646L167.009,124.646z"/>
	<path fill="#FFFFFF" d="M161.964,134.286c1.825-1.75,4.542-1.077,6.813-1.214c1.875-0.132,4.141,0.123,5.243,1.866
		c1.345,2.239,1.683,4.896,2.553,7.33c0.519,2.094,1.647,4.167,1.149,6.371c-0.965,0.335-2.17,0.289-2.64-0.771
		c-1.083-2.94-1.831-6-2.847-8.969c-0.127-0.508-0.559-0.818-0.916-1.158c1.378,5.908,3.333,11.667,4.92,17.519
		c-1.449,0.01-2.899,0.018-4.347,0c-0.115,4.184,0.041,8.374-0.068,12.549c0.029,0.955-0.601,2.031-1.653,1.996
		c-1.039,0.079-1.802-0.965-1.68-1.935c-0.055-4.207,0.044-8.417-0.041-12.625c-0.252,0.006-0.761,0.019-1.013,0.029
		c-0.086,4.349,0.089,8.703-0.082,13.048c-0.142,1.959-3.089,1.905-3.272-0.003c-0.091-4.348,0.007-8.702-0.048-13.05
		c-1.458,0.008-2.914,0.005-4.368-0.019c1.377-5.751,2.979-11.448,4.335-17.199c-0.165,0.109-0.496,0.324-0.661,0.432
		c-1.08,3.084-1.733,6.307-2.795,9.394c-0.339,1.401-2.854,1.317-2.881-0.223c0.21-2.372,1.199-4.616,1.784-6.921
		C160.196,138.564,160.395,136.071,161.964,134.286L161.964,134.286z"/>
</g>
<g>
	<path fill="#FFFFFF" d="M167.009,224.976c2.382-0.51,4.885,1.742,4.37,4.201c-0.215,3.177-4.881,4.134-6.605,1.606
		C163.057,228.739,164.522,225.507,167.009,224.976L167.009,224.976z"/>
	<path fill="#FFFFFF" d="M161.964,234.617c1.825-1.75,4.542-1.077,6.813-1.215c1.875-0.132,4.141,0.124,5.243,1.866
		c1.345,2.238,1.683,4.896,2.553,7.329c0.519,2.095,1.647,4.166,1.149,6.373c-0.965,0.333-2.17,0.287-2.64-0.772
		c-1.083-2.941-1.831-5.999-2.847-8.97c-0.127-0.507-0.559-0.818-0.916-1.156c1.378,5.907,3.333,11.665,4.92,17.518
		c-1.449,0.01-2.899,0.021-4.347,0c-0.115,4.184,0.041,8.374-0.068,12.549c0.029,0.956-0.601,2.033-1.653,1.997
		c-1.039,0.081-1.802-0.966-1.68-1.936c-0.055-4.205,0.044-8.417-0.041-12.624c-0.252,0.006-0.761,0.02-1.013,0.028
		c-0.086,4.348,0.089,8.705-0.082,13.048c-0.142,1.96-3.089,1.903-3.272-0.003c-0.091-4.347,0.007-8.703-0.048-13.05
		c-1.458,0.011-2.914,0.005-4.368-0.018c1.377-5.752,2.979-11.449,4.335-17.201c-0.165,0.11-0.496,0.327-0.661,0.434
		c-1.08,3.084-1.733,6.307-2.795,9.395c-0.339,1.399-2.854,1.315-2.881-0.224c0.21-2.372,1.199-4.616,1.784-6.922
		C160.196,238.894,160.395,236.402,161.964,234.617L161.964,234.617z"/>
</g>
<g>
	<path fill="#FFFFFF" d="M33.112,23.352c2.701-0.852,5.697,2.262,4.464,4.896c-0.779,2.648-4.703,3.342-6.358,1.158
		C29.4,27.477,30.5,23.878,33.112,23.352L33.112,23.352z"/>
	<path fill="#FFFFFF" d="M27.167,32.082c2.46-0.974,5.162-0.507,7.74-0.613c2.226,0.039,4.797-0.298,6.632,1.249
		c1.394,1.103,1.451,3.032,1.467,4.662c-0.023,3.57,0.02,7.145-0.013,10.719c0.033,0.805-0.293,2.039-1.287,1.999
		c-1.172,0.29-1.952-0.974-1.914-1.999c-0.019-3.472,0.008-6.938-0.007-10.406c-0.291,0.004-0.873,0.013-1.163,0.019
		c-0.051,9.945,0.026,19.892-0.04,29.831c0.256,2.386-3.925,2.928-4.126,0.469c-0.088-5.974-0.006-11.96-0.032-17.933
		c-0.246,0-0.732,0-0.978,0c0.007,5.213-0.013,10.422,0.009,15.637c0.006,1.125-0.092,2.291-0.522,3.349
		c-1.355,1.118-3.931,0.561-3.846-1.472c-0.085-9.944,0.02-19.895-0.049-29.837c-0.235,0-0.702,0-0.934,0
		c-0.061,3.296,0.006,6.593-0.024,9.89c0,1.083-0.536,2.775-1.919,2.452c-0.814,0.074-1.343-0.862-1.273-1.584
		c-0.039-4.18-0.024-8.365-0.003-12.545C24.836,34.379,25.62,32.687,27.167,32.082L27.167,32.082z"/>
</g>
<g>
	<path fill="#FFFFFF" d="M33.805,124.125c2.701-0.853,5.696,2.261,4.463,4.895c-0.779,2.649-4.704,3.343-6.358,1.158
		C30.093,128.249,31.192,124.649,33.805,124.125L33.805,124.125z"/>
	<path fill="#FFFFFF" d="M27.859,132.853c2.46-0.973,5.162-0.507,7.741-0.614c2.225,0.041,4.796-0.298,6.631,1.25
		c1.394,1.102,1.451,3.031,1.468,4.661c-0.023,3.571,0.019,7.145-0.015,10.719c0.034,0.804-0.292,2.039-1.285,1.997
		c-1.173,0.291-1.952-0.972-1.914-1.997c-0.019-3.472,0.008-6.937-0.008-10.406c-0.291,0.004-0.872,0.013-1.163,0.019
		c-0.05,9.946,0.026,19.893-0.041,29.831c0.257,2.386-3.923,2.929-4.125,0.469c-0.088-5.972-0.007-11.958-0.032-17.932
		c-0.247,0-0.733,0-0.979,0c0.007,5.211-0.013,10.422,0.01,15.635c0.006,1.128-0.093,2.292-0.522,3.352
		c-1.354,1.117-3.93,0.56-3.846-1.471c-0.084-9.946,0.02-19.896-0.049-29.84c-0.236,0-0.702,0-0.935,0
		c-0.06,3.297,0.007,6.595-0.023,9.891c0,1.082-0.536,2.775-1.92,2.45c-0.813,0.075-1.342-0.86-1.273-1.582
		c-0.039-4.18-0.023-8.366-0.002-12.545C25.528,135.15,26.313,133.459,27.859,132.853L27.859,132.853z"/>
</g>
<g>
	<path fill="#FFFFFF" d="M32.881,224.895c2.7-0.852,5.696,2.262,4.463,4.896c-0.778,2.65-4.704,3.344-6.357,1.16
		C29.169,229.02,30.269,225.421,32.881,224.895L32.881,224.895z"/>
	<path fill="#FFFFFF" d="M26.936,233.624c2.459-0.974,5.161-0.507,7.74-0.612c2.225,0.037,4.797-0.301,6.632,1.248
		c1.394,1.103,1.45,3.032,1.468,4.662c-0.024,3.569,0.019,7.146-0.014,10.718c0.033,0.806-0.292,2.039-1.286,2
		c-1.172,0.29-1.952-0.975-1.915-2c-0.018-3.469,0.009-6.938-0.006-10.404c-0.291,0.003-0.872,0.012-1.164,0.018
		c-0.049,9.944,0.027,19.893-0.039,29.833c0.256,2.386-3.924,2.928-4.125,0.468c-0.088-5.975-0.007-11.959-0.032-17.931
		c-0.247,0-0.732,0-0.979,0c0.007,5.211-0.013,10.42,0.01,15.635c0.006,1.124-0.092,2.29-0.522,3.348
		c-1.354,1.12-3.93,0.563-3.846-1.472c-0.084-9.942,0.021-19.893-0.049-29.835c-0.236,0-0.702,0-0.934,0
		c-0.06,3.296,0.006,6.592-0.023,9.889c0,1.082-0.536,2.773-1.919,2.452c-0.814,0.074-1.343-0.861-1.273-1.583
		c-0.04-4.181-0.024-8.367-0.002-12.546C24.605,235.921,25.39,234.229,26.936,233.624L26.936,233.624z"/>
</g>
<g>
	<line fill="none" stroke="#FFFFFF" stroke-width="3" stroke-miterlimit="10" x1="74.439" y1="36.81" x2="131" y2="36.81"/>
	<line fill="none" stroke="#FFFFFF" stroke-width="3" stroke-miterlimit="10" x1="74.439" y1="52.97" x2="131" y2="52.97"/>
</g>
<g>
	<line fill="none" stroke="#FFFFFF" stroke-width="3" stroke-miterlimit="10" x1="73.666" y1="139.459" x2="131.666" y2="139.459"/>
	<g>
		<line fill="none" stroke="#FFFFFF" stroke-width="3" stroke-miterlimit="10" x1="73.666" y1="156.03" x2="131.666" y2="156.03"/>
		<line fill="none" stroke="#FFFFFF" stroke-width="3" stroke-miterlimit="10" x1="122.92" y1="122.888" x2="81.491" y2="172.602"/>
	</g>
</g>
<g>
	<g>
		<polyline fill="none" stroke="#FFFFFF" stroke-width="3" stroke-miterlimit="10" points="76.855,234.922 101.25,210.526 
			124.15,233.427 		"/>
		<g>
			<polygon fill="#FFFFFF" points="113.942,234.497 114.012,232.547 123.62,232.898 123.269,223.289 125.22,223.22 125.645,234.923 
							"/>
		</g>
	</g>
</g>
<g>
	<g>
		<polyline fill="none" stroke="#FFFFFF" stroke-width="3" stroke-miterlimit="10" points="78.35,242.073 101.25,264.974 
			125.646,240.578 		"/>
		<g>
			<polygon fill="#FFFFFF" points="77.28,252.281 79.23,252.212 78.878,242.604 88.488,242.955 88.557,241.005 76.854,240.579 			
				"/>
		</g>
	</g>
</g>
</svg>
