<?xml version="1.0" encoding="utf-8"?>
<!-- Generator: Adobe Illustrator 16.0.0, SVG Export Plug-In . SVG Version: 6.00 Build 0)  -->
<!DOCTYPE svg PUBLIC "-//W3C//DTD SVG 1.1//EN" "http://www.w3.org/Graphics/SVG/1.1/DTD/svg11.dtd">
<svg version="1.1" id="Capa_1" xmlns="http://www.w3.org/2000/svg" xmlns:xlink="http://www.w3.org/1999/xlink" x="0px" y="0px"
	 width="100px" height="300px" viewBox="0 0 100 300" enable-background="new 0 0 100 300" xml:space="preserve">
<g>
	<g>
		<path fill="#FFFFFF" d="M76.91,159.118c-8.834,0-15.755-4.587-15.755-10.44c0-5.854,6.921-10.441,15.755-10.441
			c8.836,0,15.757,4.586,15.757,10.441C92.667,154.531,85.746,159.118,76.91,159.118z M76.91,140.77
			c-7.168,0-13.223,3.622-13.223,7.908s6.055,7.907,13.223,7.907c7.167,0,13.224-3.621,13.224-7.907S84.077,140.77,76.91,140.77z"/>
	</g>
	<g>
		<path fill="#FFFFFF" d="M52.879,188.408c-21.938,0-39.788-17.824-39.788-39.73c0-21.907,17.85-39.729,39.788-39.729
			s39.788,17.822,39.788,39.729C92.667,170.584,74.817,188.408,52.879,188.408z M52.879,111.481
			c-20.542,0-37.254,16.687-37.254,37.197c0,20.511,16.712,37.197,37.254,37.197c20.543,0,37.255-16.687,37.255-37.197
			C90.134,128.168,73.422,111.481,52.879,111.481z"/>
	</g>
</g>
<g>
	<path fill="#FFFFFF" d="M53.153,80.962c-21.906,0-39.729-17.823-39.729-39.73c0-21.907,17.822-39.729,39.729-39.729
		c21.908,0,39.729,17.823,39.729,39.729C92.883,63.139,75.062,80.962,53.153,80.962z M53.153,4.036
		c-20.509,0-37.196,16.687-37.196,37.196c0,20.511,16.687,37.197,37.196,37.197c20.511,0,37.197-16.686,37.197-37.197
		C90.351,20.722,73.664,4.036,53.153,4.036z"/>
</g>
<g>
	<g>
		<path fill="#FFFFFF" d="M52.487,299c-21.907,0-39.729-17.822-39.729-39.729s17.822-39.729,39.729-39.729
			c21.908,0,39.729,17.822,39.729,39.729h-2.532c0-20.511-16.687-37.198-37.197-37.198c-20.51,0-37.196,16.688-37.196,37.198
			c0,20.509,16.686,37.198,37.196,37.198c16.538,0,31.249-11.096,35.777-26.984l2.437,0.694C85.865,287.148,70.152,299,52.487,299z"
			/>
	</g>
	<g>
		<path fill="#FFFFFF" d="M90.701,270.179l-2.437-0.694c0.943-3.307,1.42-6.742,1.42-10.214h2.532
			C92.217,262.976,91.707,266.646,90.701,270.179z"/>
	</g>
	<g>
		<g>
			<g>
				<path fill="#FFFFFF" d="M49.09,298.818c-0.252,0-0.502-0.011-0.755-0.036c-2.883-0.305-5.374-2.289-7.011-5.589
					c-1.543-3.112-2.158-7.072-1.729-11.15c0.915-8.695,6.204-15.177,12.029-14.557c5.822,0.611,9.662,7.965,8.739,16.74
					C59.489,292.546,54.641,298.818,49.09,298.818z M50.872,269.979c-4.114,0-8.043,5.531-8.757,12.329
					c-0.379,3.604,0.146,7.071,1.479,9.759c1.239,2.497,3.016,3.984,5.007,4.195c4.318,0.45,8.5-5.237,9.243-12.302
					c0.748-7.116-2.222-13.508-6.484-13.954C51.196,269.988,51.034,269.979,50.872,269.979z"/>
			</g>
		</g>
		<g>
			<g>
				<path fill="#FFFFFF" d="M58.137,298.505c-5.322,0-10.379-5.93-11.765-13.791c-1.532-8.688,1.784-16.291,7.551-17.31
					c0.412-0.071,0.831-0.107,1.251-0.107c5.32,0,10.378,5.928,11.765,13.792c1.53,8.688-1.785,16.29-7.553,17.307
					C58.977,298.469,58.556,298.505,58.137,298.505z M55.174,269.83c-0.271,0-0.545,0.023-0.812,0.069
					c-4.222,0.746-6.738,7.328-5.495,14.375c1.156,6.56,5.228,11.697,9.27,11.697c0.271,0,0.545-0.025,0.81-0.071
					c4.222-0.743,6.738-7.326,5.495-14.372C63.286,274.969,59.215,269.83,55.174,269.83z"/>
			</g>
		</g>
		<g>
			<g>
				<path fill="#FFFFFF" d="M66.628,295.718c-4.772,0-10-4.141-13.006-10.304c-3.866-7.931-2.773-16.153,2.489-18.719
					c1.005-0.49,2.107-0.739,3.274-0.739c4.772,0,9.998,4.14,13.007,10.304c3.867,7.93,2.772,16.153-2.489,18.719
					C68.897,295.471,67.796,295.718,66.628,295.718z M59.386,268.489c-0.78,0-1.508,0.162-2.165,0.482
					c-3.853,1.88-4.458,8.901-1.322,15.332c2.552,5.229,6.962,8.881,10.729,8.881c0.78,0,1.509-0.163,2.166-0.483
					c3.853-1.879,4.457-8.898,1.321-15.332C67.564,272.14,63.152,268.489,59.386,268.489z"/>
			</g>
		</g>
		<g>
			<g>
				<path fill="#FFFFFF" d="M73.582,290.751c-4.256,0-9.041-2.49-12.796-6.662c-5.904-6.557-7.12-14.762-2.771-18.68
					c1.422-1.28,3.32-1.957,5.492-1.957c4.257,0,9.039,2.492,12.796,6.662c5.904,6.557,7.119,14.765,2.769,18.68
					C77.651,290.076,75.753,290.751,73.582,290.751z M63.508,265.987c-1.556,0-2.834,0.438-3.797,1.305
					c-3.186,2.868-1.831,9.784,2.957,15.101c3.235,3.594,7.417,5.825,10.914,5.825c1.556,0,2.833-0.439,3.794-1.307
					c3.187-2.868,1.834-9.782-2.954-15.101C71.188,268.217,67.005,265.987,63.508,265.987z"/>
			</g>
		</g>
		<g>
			<g>
				<path fill="#FFFFFF" d="M77.985,284.174c-3.447,0-7.239-1.184-10.682-3.333c-7.48-4.676-10.911-12.228-7.81-17.194
					c1.554-2.483,4.463-3.85,8.196-3.85c3.444,0,7.239,1.184,10.681,3.335c7.481,4.676,10.912,12.226,7.81,17.192
					C84.629,282.808,81.718,284.174,77.985,284.174z M67.69,262.328c-2.827,0-4.976,0.945-6.048,2.662
					c-2.271,3.634,0.937,9.909,7.005,13.702c3.044,1.901,6.359,2.95,9.338,2.95c2.827,0,4.976-0.945,6.048-2.662
					c2.271-3.635-0.938-9.91-7.005-13.702C73.984,263.376,70.667,262.328,67.69,262.328z"/>
			</g>
		</g>
		<g>
			<g>
				<path fill="#FFFFFF" d="M78.973,276.831c-2.069,0-4.188-0.307-6.297-0.91c-3.941-1.131-7.384-3.182-9.689-5.779
					c-2.448-2.756-3.356-5.809-2.557-8.594c1.151-4.017,5.747-6.612,11.707-6.612c2.068,0,4.187,0.307,6.295,0.911
					c8.48,2.433,13.86,8.745,12.248,14.373C89.525,274.236,84.932,276.831,78.973,276.831z M72.137,257.47
					c-4.801,0-8.439,1.874-9.271,4.776c-0.552,1.922,0.162,4.128,2.014,6.214c1.992,2.242,5.009,4.025,8.494,5.025
					c1.882,0.538,3.766,0.813,5.6,0.813c4.798,0,8.439-1.874,9.271-4.776c1.181-4.12-3.632-9.267-10.511-11.239
					C75.854,257.741,73.971,257.47,72.137,257.47z"/>
			</g>
		</g>
		<g>
			<g>
				<path fill="#FFFFFF" d="M76.483,269.711c-8.822,0-15.733-4.586-15.733-10.44c0-5.856,6.911-10.443,15.733-10.443
					c8.823,0,15.733,4.587,15.733,10.443C92.217,265.125,85.307,269.711,76.483,269.711z M76.483,251.36
					c-7.155,0-13.199,3.623-13.199,7.91s6.044,7.907,13.199,7.907c7.154,0,13.201-3.62,13.201-7.907S83.638,251.36,76.483,251.36z"
					/>
			</g>
		</g>
	</g>
</g>
</svg>
