<?xml version="1.0" encoding="utf-8"?>
<!-- Generator: Adobe Illustrator 16.0.0, SVG Export Plug-In . SVG Version: 6.00 Build 0)  -->
<!DOCTYPE svg PUBLIC "-//W3C//DTD SVG 1.1//EN" "http://www.w3.org/Graphics/SVG/1.1/DTD/svg11.dtd">

<svg version="1.1" id="Capa_1" xmlns="http://www.w3.org/2000/svg" xmlns:xlink="http://www.w3.org/1999/xlink" x="0px" y="0px"
	 width="400px" height="900px" viewBox="0 0 500 900" enable-background="new 0 0 500 900" xml:space="preserve">

<rect x="13.5" y="9.5" fill="none" stroke="#000000" stroke-width="3" stroke-miterlimit="10" width="466" height="885"/>
<text transform="matrix(1 0 0 1 95.5586 94.501)" font-family="'OpenSans-Bold'" font-size="21">Clasica</text>
<text transform="matrix(1 0 0 1 325.7998 94.501)" font-family="'OpenSans-Bold'" font-size="21">Moderna</text>
<text transform="matrix(1 0 0 1 157.0566 53.2852)" font-family="'OpenSans-Bold'" font-size="23.4206" fill="#ff0063">Horientación Clínica</text>
<g>
	<line fill="#666666" x1="84" y1="139" x2="166" y2="139"/>
	<g>
		<line fill="none" stroke="#808080" stroke-miterlimit="10" x1="84" y1="139.5" x2="162" y2="139.5"/>
		<g>
			<polygon fill="#808080" points="165.689,139.385 161.115,141.255 162.198,139.385 161.115,137.515 			"/>
		</g>
	</g>
</g>
<text transform="matrix(1 0 0 1 41.3975 144.3457)" font-family="'OpenSans-Regular'" font-size="15.947">Datos</text>
<text transform="matrix(1 0 0 1 279.6211 147.1807)" font-family="'OpenSans-Regular'" font-size="15.947">Datos</text>
<text transform="matrix(1 0 0 1 181.2266 144.3457)" font-family="'OpenSans-Regular'" font-size="15.947">sujeto</text>
<text transform="matrix(1 0 0 1 413.626 147.1807)" font-family="'OpenSans-Regular'" font-size="15.947">sujeto</text>
<line fill="#CCCCCC" stroke="#CCCCCC" stroke-miterlimit="10" x1="244.5" y1="76" x2="244.5" y2="824"/>
<rect x="27.5" y="347.5" fill="#CCCCCC" stroke="#B3B3B3" width="202" height="50"/>
<rect x="263.5" y="347.5" fill="#CCCCCC" stroke="#B3B3B3" width="204" height="50"/>
<path fill="none" stroke="#808080" stroke-miterlimit="10" d="M479.008,141.542"/>
<g>
	<g>
		<g>
			<polyline fill="none" stroke="#808080" stroke-miterlimit="10" points="325.8,142.866 363.448,105.218 399.069,140.84 			"/>
			<g>
				<polygon fill="#808080" points="396.859,141.144 398.65,140.421 399.373,138.63 401.096,142.866 				"/>
			</g>
		</g>
	</g>
	<g>
		<g>
			<polyline fill="none" stroke="#808080" stroke-miterlimit="10" points="327.826,149.077 363.448,184.699 401.096,147.051 			"/>
			<g>
				<polygon fill="#808080" points="327.522,151.287 328.245,149.496 330.036,148.773 325.8,147.051 				"/>
			</g>
		</g>
	</g>
</g>
<text transform="matrix(1 0 0 1 50.3691 270.7949)"><tspan x="0" y="0" font-family="'OpenSans-Light'" font-size="15.947">El tiempo clave es el pasado</tspan><tspan x="-18.735" y="31.073" font-family="'OpenSans-Light'" font-size="15.947">la flecha del tiempo es cronológica</tspan></text>
<text transform="matrix(1 0 0 1 283.5264 270.7949)"><tspan x="0" y="0" font-family="'OpenSans-Light'" font-size="15.947">El tiempo clave es el </tspan><tspan x="150.133" y="0" font-family="'OpenSans-SemiBold'" font-size="15.947">futuro</tspan><tspan x="13.357" y="31.073" font-family="'OpenSans-Light'" font-size="15.947">la flecha del tiempo es </tspan><tspan x="41.016" y="46.609" font-family="'OpenSans-Light'" font-size="15.947">no orientable</tspan></text>
<text transform="matrix(1 0 0 1 290.542 217.4248)"><tspan x="0" y="0" font-family="'OpenSans-Light'" font-size="15.947">Los datos y el sujeto son </tspan><tspan x="32.226" y="15.537" font-family="'OpenSans-SemiBold'" font-size="15.947">cooriginarios</tspan></text>
<text transform="matrix(1 0 0 1 46.3394 181.459)" font-family="'OpenSans-Light'" font-size="15.947">Los datos señalan al sujeto</text>
<text transform="matrix(1 0 0 1 59.5225 372.4297)"><tspan x="0" y="0" font-family="'OpenSans-Light'" font-size="15.947">El sujeto es una sustancia</tspan><tspan x="0" y="15.537" font-family="'OpenSans-Light'" font-size="15.947">subiectum (hipokeimenon)</tspan></text>
<text transform="matrix(1 0 0 1 277.25 367.0352)"><tspan x="0" y="0" font-family="'OpenSans-Light'" font-size="15.947">El Sujeto es un </tspan><tspan x="88.581" y="0" font-family="'OpenSans-SemiBold'" font-size="15.947">Existencial</tspan></text>
<g>
	<g>
		<line fill="none" stroke="#B3B3B3" x1="151.5" y1="399" x2="151.5" y2="471"/>
		<g>
			<polygon fill="#B3B3B3" points="119.391,471 151.884,475.317 154.377,471 			"/>
		</g>
	</g>
</g>
<rect x="27.5" y="478.5" fill="#E6E6E6" stroke="#B3B3B3" width="202" height="80"/>
<text transform="matrix(1 0 0 1 67.4434 493.2686)"><tspan x="0" y="0" font-family="'OpenSans-Light'" font-size="15.947">El análisis del caso</tspan><tspan x="23.049" y="15.536" font-family="'OpenSans-Light'" font-size="15.947"> </tspan><tspan x="26.413" y="15.536" font-family="'OpenSans-SemiBold'" font-size="15.947">deriva </tspan><tspan x="68.933" y="15.536" font-family="'OpenSans-Light'" font-size="15.947">en</tspan><tspan x="-11.417" y="31.073" font-family="'OpenSans-Light'" font-size="15.947">el analisis de los datos</tspan></text>
<g>
	<g>
		<line fill="none" stroke="#B3B3B3" x1="357.5" y1="397" x2="357.5" y2="469"/>
		<g>
			<polygon fill="#B3B3B3" points="354.596,468 357.089,472.317 359.582,468 			"/>
		</g>
	</g>
</g>
<rect x="262.5" y="476.5" fill="#E6E6E6" stroke="#1A1A1A" width="202" height="392"/>
<text transform="matrix(1 0 0 1 313.9131 493.2686)"><tspan x="0" y="0" font-family="'OpenSans-Light'" font-size="15.947">El análisis del caso </tspan><tspan x="32.446" y="15.536" font-family="'OpenSans-SemiBold'" font-size="15.947">implica</tspan></text>
<g>
	<g>
		<path fill="#FFFFFF" d="M311.235,709.594c0,31.527,25.656,57.183,57.184,57.183c31.526,0,57.182-25.655,57.182-57.183
			c0-20.115-10.444-37.827-26.174-48.015c-9.172,5.156-19.767,8.093-31.008,8.093c-11.243,0-21.839-2.937-31.009-8.093
			C321.678,671.767,311.235,689.481,311.235,709.594z"/>
		<path fill="#FFFFFF" d="M344.208,657.806c7.358,3.476,15.557,5.396,24.211,5.396c8.651,0,16.851-1.92,24.21-5.396
			c-7.359-3.475-15.559-5.396-24.21-5.396C359.765,652.41,351.566,654.331,344.208,657.806z"/>
		<path fill="#FFFFFF" d="M399.427,654.03c15.729-10.185,26.174-27.901,26.174-48.013c0-31.524-25.655-57.183-57.182-57.183
			c-31.527,0-57.184,25.658-57.184,57.183c0,20.111,10.442,37.828,26.175,48.013c9.17-5.158,19.766-8.093,31.009-8.093
			C379.66,645.938,390.255,648.872,399.427,654.03z"/>
		<path d="M432.075,606.018c0-35.106-28.55-63.656-63.656-63.656c-35.108,0-63.657,28.55-63.657,63.656
			c0,21.34,10.551,40.266,26.714,51.788c1.897,1.38,3.884,2.633,5.935,3.776c9.17,5.156,19.766,8.093,31.009,8.093
			c11.241,0,21.836-2.937,31.008-8.093c-2.159-1.425-4.447-2.676-6.798-3.776c-7.359,3.476-15.559,5.396-24.21,5.396
			c-8.654,0-16.853-1.92-24.211-5.396c-2.353-1.101-4.641-2.352-6.798-3.775c-15.732-10.185-26.175-27.901-26.175-48.013
			c0-31.524,25.656-57.183,57.184-57.183c31.526,0,57.182,25.658,57.182,57.183c0,20.111-10.444,37.828-26.174,48.013
			c2.051,1.144,4.035,2.395,5.934,3.775C421.523,646.283,432.075,627.357,432.075,606.018z"/>
		<path fill="#808080" d="M425.601,709.594c0,31.527-25.655,57.183-57.182,57.183c-31.527,0-57.184-25.655-57.184-57.183
			c0-20.115,10.442-37.827,26.175-48.015c-2.051-1.144-4.037-2.396-5.935-3.776c-16.163,11.523-26.714,30.448-26.714,51.788
			c0,35.105,28.549,63.656,63.657,63.656c35.106,0,63.656-28.551,63.656-63.656c0-21.34-10.552-40.265-26.715-51.788
			c-1.898,1.38-3.883,2.633-5.934,3.776C415.156,671.767,425.601,689.481,425.601,709.594z"/>
		<path fill="#808080" d="M368.419,645.938c-11.243,0-21.839,2.935-31.009,8.093c2.157,1.424,4.445,2.675,6.798,3.775
			c7.358-3.475,15.557-5.396,24.211-5.396c8.651,0,16.851,1.921,24.21,5.396c2.351-1.101,4.639-2.352,6.798-3.775
			C390.255,648.872,379.66,645.938,368.419,645.938z"/>
		<path fill="#808080" d="M392.629,657.806c2.351,1.101,4.639,2.352,6.798,3.776c2.051-1.144,4.035-2.396,5.934-3.776
			c-1.898-1.381-3.883-2.632-5.934-3.775C397.268,655.454,394.979,656.705,392.629,657.806z"/>
	</g>
	<text transform="matrix(1 0 0 1 330.4785 706.9834)"><tspan x="0" y="0" font-family="'MyriadPro-Regular'" font-size="15.947">Comprensión </tspan><tspan x="8.861" y="15.536" font-family="'MyriadPro-Regular'" font-size="15.947">ontológica</tspan></text>
	<text transform="matrix(1 0 0 1 330.4785 594.3271)"><tspan x="0" y="0" font-family="'MyriadPro-Regular'" font-size="15.947">Comprensión </tspan><tspan x="21.116" y="15.536" font-family="'MyriadPro-Regular'" font-size="15.947">ontica</tspan></text>
</g>
<text transform="matrix(1 0 0 1 311.6865 804.3496)"><tspan x="0" y="0" font-family="'OpenSans-Light'" font-size="15.947">a partir de la cual </tspan><tspan x="-2.237" y="15.536" font-family="'OpenSans-Light'" font-size="15.947">el </tspan><tspan x="11.158" y="15.536" font-family="'OpenSans-SemiBold'" font-size="15.947">Sujeto</tspan><tspan x="50.563" y="15.536" font-family="'OpenSans-Light'" font-size="15.947"> es visible</tspan></text>
</svg>
