<?xml version="1.0" encoding="utf-8"?>
<!-- Generator: Adobe Illustrator 16.0.0, SVG Export Plug-In . SVG Version: 6.00 Build 0)  -->
<!DOCTYPE svg PUBLIC "-//W3C//DTD SVG 1.1//EN" "http://www.w3.org/Graphics/SVG/1.1/DTD/svg11.dtd">
<svg version="1.1" id="Capa_1" xmlns="http://www.w3.org/2000/svg" xmlns:xlink="http://www.w3.org/1999/xlink" x="0px" y="0px"
	 width="200px" height="200px" viewBox="0 0 200 200" enable-background="new 0 0 200 200" xml:space="preserve">
<g>
	<g>
		
			<radialGradient id="SVGID_1_" cx="-1488.73" cy="-2786.6108" r="432.7628" gradientTransform="matrix(0.5785 0.0014 -0.0014 0.5785 911.1509 1624.5527)" gradientUnits="userSpaceOnUse">
			<stop  offset="0" style="stop-color:#E4F3FB"/>
			<stop  offset="0.4192" style="stop-color:#E36544"/>
			<stop  offset="0.7601" style="stop-color:#CE1920"/>
		</radialGradient>
		<circle fill="url(#SVGID_1_)" cx="100.595" cy="99.819" r="96.13"/>
		
			<radialGradient id="SVGID_2_" cx="-1382.79" cy="-2537.7129" r="332.1278" gradientTransform="matrix(0.5785 0.0014 -0.0014 0.5785 911.1509 1624.5527)" gradientUnits="userSpaceOnUse">
			<stop  offset="0" style="stop-color:#E4F3FB"/>
			<stop  offset="0.4192" style="stop-color:#E36544"/>
			<stop  offset="0.7601" style="stop-color:#CE1920"/>
		</radialGradient>
		<path fill="url(#SVGID_2_)" d="M167.835,78.946c-0.307,0.177-0.604,0.106-0.809-0.074c-1.07,1.226-1.585,3.145-0.219,4.085
			c1.068,0.736,2.273,0.892,3.027-0.339c0.58-0.953,0.898-2.267,0.535-3.354C169.946,77.995,168.744,78.425,167.835,78.946z"/>
		<path opacity="0.3" fill="#FFEACB" d="M173.604,103.156c0.175-3.976,7.463-4.239,10.132-4.446
			c3.265-0.254,6.536-0.304,9.807-0.445c0.945-0.041,2.064-0.013,3.169-0.086c-0.204-12.152-2.677-23.75-6.993-34.407
			c-5.559,1.641-12.624,3.65-16.116-0.062c-2.805-2.98-1.633-7.397-0.624-10.898c1.271-4.407,1.356-8.787,2.72-12.989
			c-0.918-1.147-1.856-2.277-2.827-3.381c-0.349,0.431-0.657,0.916-0.901,1.476c-1.217,2.787-1.217,5.933-1.198,8.922
			c0.038,6.061,0.536,12.114-4.607,16.25c-1.617,1.3-3.594,2.305-4.923,3.925c-2.313,2.814-1.312,5.613-0.306,8.676
			c1.185,3.616,1.623,6.583,0.458,10.278c-1.64,5.194-5.248,8.684-10.718,9.514c-5.124,0.78-10.378-0.142-15.47,0.748
			c-2.696,0.469-5.481,1.483-6.999,3.932c-1.976,3.185-0.752,6.304-1.811,9.609c-1.97,6.142-11.504,9.015-17.163,9.304
			c-5.89,0.303-12.303-1.172-18.005,0.77c-3.552,1.209-6.761,3.097-9.603,5.544c-4.625,3.981-8.498,9.076-13.765,12.263
			c-5.706,3.453-12.386,4.088-18.823,2.436c-7.254-1.86-13.398-6.013-20.057-9.253c-6.855-3.332-13.408-4.443-20.124-2.213
			c7.124,22.709,22.456,41.783,42.516,53.77c0.642-0.209,1.324-0.325,1.827-0.431c3.666-0.768,7.353-1.316,10.248-3.932
			c3.387-3.062,4.358-7.305,4.452-11.742c0.054-2.618-0.032-4.975,1.451-7.241c3.783-5.791,13.799-7.322,19.867-9.106
			c5.65-1.662,12.072-0.968,17.535-3.096c7.245-2.823,6.132-11.229,9.03-17.057c1.327-2.667,3.409-4.48,5.842-6.137
			c3.977-2.71,6.995-5.386,9.937-9.206c2.542-3.308,5.138-5.94,8.936-7.745c4.149-1.973,8.725-2.631,12.828-4.766
			c2.491-1.293,5.193-3.132,8.124-2.867c2.367,0.212,4.442,2.628,5.529,4.542c1.014,1.779,1.307,3.677,2.051,5.556
			c1.552,3.937,4.97,4.202,8.559,4.09c3.432-0.107,6.292,0.317,8.82,2.854c1.982,1.99,3.872,4.423,6.766,5.075
			c0.372,0.08,0.747,0.149,1.122,0.205c0.329-1.434,0.618-2.88,0.882-4.337c-2.021-1.379-3.735-3.255-5.822-4.542
			C185.224,109.96,173.291,110.396,173.604,103.156z M59.572,174.942c-0.42,0.298-0.896,0.545-1.434,0.706
			c-0.154,0.047-0.284,0.03-0.402-0.007c-3.206,0.883-6.766,0.221-6.59-2.712c0.214-3.57,4.687-8.788,8.415-6.134
			c0.35,0.247,0.642,0.531,0.901,0.833c0.233-0.095,0.505-0.071,0.734,0.164c0.543,0.566,1.052,1.218,1.285,1.98
			C63.178,172.058,61.683,173.871,59.572,174.942z M60.74,160.493c-3.345-0.619-9.523-3.758-7.447-8.168
			c1.142-2.417,3.695-3.1,6.377-3.347c1.532-0.354,3.203-0.487,4.744-0.272c0.331-0.025,0.651-0.06,0.952-0.107
			c0.447-0.066,0.767,0.23,0.871,0.571c1.611,0.619,2.882,1.787,3.34,3.752C70.736,157.875,65.205,161.319,60.74,160.493z
			 M85.87,131.069c-1.253,0.968-5.832,2.868-6.147-0.004c-0.194-1.774,1.699-3.771,3.035-4.688c0.268-0.185,0.525-0.145,0.723-0.005
			c1.078-0.938,2.33-1.453,3.378-0.337C88.254,127.527,87.295,129.974,85.87,131.069z M108.977,141.243
			c-2.753,3.57-9.851,4.65-13.882,3.155c-4.671-1.729-1.481-7.074,1.466-8.58c1.719-0.879,4.374-1.912,6.957-2.271
			c0.017-0.262,0.18-0.495,0.528-0.549c2.021-0.319,5.245-0.447,6.23,1.905C111.227,137.17,110.417,139.376,108.977,141.243z
			 M170.51,84.093c-1.612,1.547-4.385,0.976-5.516-0.943c-1.401-2.377,0.629-6.07,3.192-6.744c0.5-0.132,0.831,0.232,0.885,0.628
			c1.188-0.104,2.288,0.377,2.706,1.844C172.262,80.581,171.818,82.84,170.51,84.093z"/>
		
			<radialGradient id="SVGID_3_" cx="-1382.7881" cy="-2537.687" r="332.17" gradientTransform="matrix(0.5785 0.0014 -0.0014 0.5785 911.1509 1624.5527)" gradientUnits="userSpaceOnUse">
			<stop  offset="0" style="stop-color:#E4F3FB"/>
			<stop  offset="0.4192" style="stop-color:#E36544"/>
			<stop  offset="0.7601" style="stop-color:#CE1920"/>
		</radialGradient>
		<path fill="url(#SVGID_3_)" d="M176.26,63.599c4.191,1.181,8.593-0.073,12.855-1.27c-3.207-7.56-7.351-14.621-12.292-21.045
			c-0.808,3.197-0.879,6.44-1.831,9.802C174.024,54.49,171.019,62.123,176.26,63.599z"/>
		<path opacity="0.3" fill="#FFEACB" d="M30.579,109.769c3.128-0.674,6.136-1.17,8.03-4.018c0.938-1.411,1.795-2.771,3.15-3.821
			c3.176-2.459,7.812,0.666,11.311-0.623c3.285-1.209,2.526-3.87,2.854-6.337c0.036-0.282,0.383-1.581-0.127-1.864
			c-2.377-1.316-5.173-2.175-7.923-1.929c-1.895,0.169-4.216,0.917-6.138,0.383c-3.07-0.847-5.75-2.646-9.067-1.887
			c-4.057,0.932-5.499,0.009-8.418-2.681c-3.309-3.055-8.008-1.356-12.032-1.012C10.901,86.09,9.231,86.32,8,85.7
			c-0.857,0.18-1.718,0.36-2.577,0.541C4.807,90.6,4.477,95.052,4.465,99.579c-0.013,4.589,0.309,9.101,0.92,13.521
			c1.505-0.47,3.026-0.895,4.577-1.233c6.05-1.32,12.197-1.302,18.324-1.607C29.049,110.096,29.811,109.934,30.579,109.769z"/>
		<path opacity="0.3" fill="#FBD092" d="M109.146,74.297c-0.274,0.137-0.551,0.271-0.831,0.395c-0.41,0.191-0.876,0.345-1.334,0.319
			c-2.336-0.135-4.198-1.228-6.512-0.06c-1.796,0.907-4.872,1.513-5.783,3.522c-0.208,0.457-0.338,0.939-0.471,1.414
			c1.587,1.812,3.337,2.484,6.041,2.341c0.831-0.041,1.685-0.137,2.5,0.082c1.197,0.323,1.667,0.139,1.882-0.984
			c0.212-1.09,0.508-1.806,1.554-2.238c1.235-0.51,3.534,0.066,4.68-0.946c0.154-0.326,0.288-0.66,0.393-1.011
			c0.108-0.359,0.196-0.724,0.265-1.095C111.372,74.802,110.513,73.623,109.146,74.297z"/>
		<path opacity="0.5" fill="#9A191D" d="M76.632,88.293c-0.069,0.115-0.186,0.201-0.357,0.208c-1.81,0.077-3.594,0.616-5.067,1.701
			c-0.896,0.661-2.854,1.707-1.29,2.544c1.583,0.844,3.383,1.352,5.183,1.4c3.859,0.104,7.545-1.513,7.929-5.64
			C80.978,88.452,78.776,88.231,76.632,88.293z"/>
		<path opacity="0.5" fill="#9A191D" d="M126.123,61.132c-0.779,0.993-1.477,2.046-2.034,3.176
			c7.376,1.816,15.177-2.546,15.203-10.58C134.48,54.592,129.453,57.442,126.123,61.132z"/>
		<path opacity="0.5" fill="#9A191D" d="M62.517,129.759c-0.1-0.044-0.201-0.087-0.301-0.131c-0.088-0.024-0.178-0.052-0.268-0.075
			c-2.871,0.298-6.027,0.612-8.686,1.828c-0.545,0.494-0.973,1.048-1.161,1.655c0.844,0.548,1.854,0.931,2.444,1.11
			c1.633,0.501,2.947,0.553,4.61,0.02c0.819-0.262,6.013-1.386,5.048-2.787C63.741,130.706,63.16,130.185,62.517,129.759z"/>
		<path opacity="0.3" fill="#FBD092" d="M101.059,9.363c4.35,1.271,8.622,2.866,12.667,4.92c1.84,0.936,4.029,1.875,5.612,3.215
			c1.925,1.628,3.749,3.37,5.688,4.981c4.4,3.66,10.752,7.745,16.531,4.677c4.13-2.195,7.141-6.016,11.44-7.929
			c-15.008-9.78-32.911-15.493-52.161-15.541c-7.56-0.021-14.917,0.835-21.978,2.467C86.359,6.195,93.872,7.261,101.059,9.363z"/>
		<path opacity="0.5" fill="#9A191D" d="M68.457,78.967c-0.5,0.068-1.002,0.122-1.505,0.169c-0.345-0.022-0.668-0.002-0.981-0.142
			c-1.324-0.598-2.374-1.627-3.818-1.968c-2.183-0.518-4.701-0.44-5.728,0.998c-0.185,0.485-0.241,1.007-0.094,1.534
			c0.501,1.801,2.509,2.595,4.18,2.911c2.715,0.51,5.784,0.435,8.438-0.376c0.497-0.149,1.166-0.393,1.715-0.748
			C70.485,80.568,69.764,79.776,68.457,78.967z"/>
		<path opacity="0.5" fill="#9A191D" d="M103.842,170.682c-0.278,0.009-0.557,0.037-0.832,0.072c-1.482,0.708-2.953,1.44-4.38,2.266
			c-0.302,0.178-0.581-0.032-0.651-0.294c-2.248,1.474-4.174,3.565-5.543,5.684c6.395,2.256,13.753-2.415,13.96-9.26
			c-0.705,0.338-1.415,0.676-2.123,1.008C104.296,170.4,104.156,170.668,103.842,170.682z"/>
	</g>
	<g>
		<path opacity="0.5" fill="#AA4735" d="M100.836,3.687c-53.092-0.133-96.24,42.8-96.371,95.892
			c-0.133,53.092,42.798,96.238,95.89,96.371c53.093,0.134,96.24-42.798,96.37-95.891C196.86,46.967,153.929,3.819,100.836,3.687z
			 M93.237,169.926c-43.938-0.107-79.465-35.816-79.354-79.753c0.109-43.938,35.815-79.467,79.752-79.359
			c43.94,0.11,79.466,35.819,79.358,79.757C172.883,134.507,137.178,170.037,93.237,169.926z"/>
		<path opacity="0.7" fill="#CAC9B6" d="M26.869,150.451c-12.949-20.575-17.372-38.53-18.212-52.309
			c-0.005-0.043-0.013-0.088-0.018-0.132c-0.521-4.395-0.724-8.783-0.583-13.148c-2.544,14.364-2.723,37.064,11.686,62.085
			c24.347,42.276,69.914,49.029,92.865,45.163C112.606,192.11,56.938,198.222,26.869,150.451z"/>
	</g>
	<path opacity="0.5" fill="#6E1415" d="M54.176,51.301c-3.56-1.859-7.7-0.616-11.32,0.292c-1.789,0.449-3.872,0.962-5.25,2.274
		c-1.169,1.115-3.377,2.792-3.438,4.586c-0.057,1.637,2.858,2.993,3.835,4.093c1.183,1.332,2.486,2.058,4.345,1.872
		c1.838-0.189,3.667-0.876,5.193-1.968c1.12-0.575,2.148-1.378,3.04-2.374c0.51-0.571,0.913-1.267,1.309-1.918
		c0.884-1.448,1.938-2.585,2.935-3.933C55.563,53.226,55.295,51.887,54.176,51.301z"/>
	<path opacity="0.5" fill="#6E1415" d="M67.296,58.967c-0.757-0.34-1.752-0.04-2.499,0.41c-0.063,0.037-0.129,0.074-0.191,0.117
		c-0.11,0.076-0.216,0.154-0.308,0.233c-0.358,0.302-0.664,0.82-0.618,1.282c-0.002,0.052-0.017,0.105-0.013,0.16
		c0.039,0.594,0.571,1.011,1.091,1.205c1.174,0.432,2.433-0.303,3.04-1.298C68.243,60.347,68.126,59.339,67.296,58.967z"/>
	<path opacity="0.5" fill="#9A191D" d="M156.962,111.287c-1.021-1.67-7.917,0.785-9.075,1.607c-1.655,1.174-3.207,2.05-4.613,3.01
		c-0.953,0.381-1.894,0.844-2.814,1.423c-2.23,1.406-3.614,3.846-5.82,5.214c-1.206,0.747-2.812,1.522-3.517,2.839
		c-1.117,2.083-0.494,4.977,2.47,4.636c2.938-0.333,5.181-2.145,8.292-1.621c2.109,0.357,4.335,0.444,6.433-0.029
		c3.298-0.744,5.694-4.635,7.037-7.411c0.896-1.854,0.873-3.818,0.906-5.822C156.286,113.508,157.856,112.753,156.962,111.287z"/>
</g>
</svg>
